<?xml version="1.0" encoding="utf-8"?>
<!-- Generator: Adobe Illustrator 25.2.1, SVG Export Plug-In . SVG Version: 6.00 Build 0)  -->
<svg version="1.1" id="Layer_1" xmlns="http://www.w3.org/2000/svg" xmlns:xlink="http://www.w3.org/1999/xlink" x="0px" y="0px"
	 viewBox="0 0 614 818" style="enable-background:new 0 0 614 818;" xml:space="preserve" width="614" height="818">
<style type="text/css">
	.st0{fill:#FFFFFF;}
	.st1{fill:none;}
	.st2{fill:#F29900;}
	.st3{fill:#E37401;}
	.st4{fill:#CEEAD6;}
	.st5{fill:#34A853;}
	.st6{fill:#5F6368;}
	.st7{fill:#9AA0A6;}
	.st8{fill:#202124;}
	.st9{fill:#FAD2CF;}
	.st10{fill:none;stroke:#E37401;stroke-width:0;stroke-linecap:round;stroke-linejoin:round;}
	.st11{fill:#EA8502;}
	.st12{fill:#FEE1CD;}
	.st13{fill:#F1BF9F;}
	.st14{fill:#EA4235;}
	.st15{fill:#FBBC05;}
	.st16{fill:#188038;}
	.st17{fill:#D2E3FC;}
	.st18{fill:#4285F4;}
	.st19{fill:none;stroke:#FEE1CD;stroke-width:0;stroke-linecap:round;stroke-linejoin:round;}
	.st20{fill:#6A3C00;}
	.st21{fill:#9A5700;}
	.st22{fill:#0D652C;}
	.st23{fill:none;stroke:#D2E3FC;stroke-width:0;stroke-linecap:round;stroke-linejoin:round;}
	.st24{fill:#174EA7;}
	.st25{fill:none;stroke:#202124;stroke-width:0;stroke-linecap:round;stroke-linejoin:round;}
	.st26{fill:#F1F3F4;}
</style>
<rect class="st0" width="614" height="818"/>
<g>
	<path class="st1" d="M82.19,280.65c0.05,0.1,0.12,0.19,0.19,0.28c2.04-0.47,3.32,1.17,4.39,2.23c2.18,2.31,4.48,4.54,6.84,6.73
		c-0.09-15.28-0.11-30.66-2.28-45.77c-2.1-7.61-6.23-15.4-13.23-19.47c-0.8-0.6-1-1.57-1.1-2.5c-0.17-1.67-0.24-3.36-0.27-5.04
		c-0.41-8.17,0.63-16.53-1-24.58c-1.82-0.04-3.81,0.15-5.38,1.12c-0.27,1-0.27,2.06-0.35,3.09c-0.61,8.49-0.07,17.05-1.22,25.5
		c-0.18,4.49-4.88,6.17-6.94,9.66c-3.11,5.32-4.18,11.55-4.67,17.61c-1.06,14.88-0.8,29.8-0.68,44.71c0,5.11,0.08,10.24-0.27,15.34
		h24.43v-28.91H82.19z"/>
	<path class="st1" d="M322.5,391.52c0.62,1.13,1.3,2.23,1.99,3.3h0C323.8,393.75,323.13,392.65,322.5,391.52z"/>
	<path class="st1" d="M436.03,712.85c-0.08-2.51-0.87-5.09-2.72-6.86C432.47,708.54,432.88,712.28,436.03,712.85z"/>
	<path class="st1" d="M441.09,708.07c-0.96-0.29-1.92-0.61-2.86-0.96c0.48,1.09,0.84,2.23,1.05,3.26
		C439.92,709.63,440.52,708.86,441.09,708.07z"/>
	<path class="st1" d="M61.92,109.37c-0.08-1.61-0.02-3.2,0.1-4.8c-0.91,0.63-1.85,1.21-2.84,1.73c-3.18,1.91-6.48,3.97-10.33,3.91
		c-0.69,0-1.43-0.12-1.98-0.57c-3.33-3.38,2.32-6.89,4.58-8.92c0,0,0,0,0,0c-2.77-0.85-5.81-1.85-7.8-4.05c0,0,0-0.01,0-0.01v27.04
		h19.71C61.8,119.15,61.82,114.12,61.92,109.37z"/>
	<path class="st1" d="M218.39,701.67c-0.59-1.97-1.16-3.95-1.75-5.92c-1.42-4.8-2.84-9.59-4.24-14.39
		c-1.7-5.82-3.35-11.65-5.04-17.48c0.03,0.1,0.05,0.2,0.08,0.3c-0.27-0.98-0.54-1.96-0.81-2.93c0.03,0.1,0.05,0.2,0.08,0.3
		c-1.1-4.01-2.18-8.02-3.21-12.05c0-0.02-0.01-0.03-0.01-0.05H43.63V714h0.08v7.4c16.14-1.91,32.33-3.31,48.53-4.49
		c16.73-1.03,33.5-1.09,50.23-2.06c26.45-1.83,52.92-1.64,79.4-1.25C220.72,709.62,219.57,705.64,218.39,701.67z M205.84,669.87
		c-0.02-0.11-0.05-0.21-0.08-0.31C205.79,669.67,205.82,669.77,205.84,669.87z"/>
	<rect x="43.63" y="331.55" class="st1" width="37" height="141.74"/>
	<path class="st1" d="M238.43,394.82h2.26c-1.4-4.9-0.88-11.18,0-14.99c1.46-9.05,6.42-17.29,13.5-22.92
		c0.5-1.98,2.72-2.94,4.19-4.15c1.66-1.1,3.34-2.36,5.18-3.16c-0.66-4.52-2.01-13.04-0.1-14.01c2.45-1.25,3.32,2.27,4.13,3.89
		c0.2,0.46,0.39,0.92,0.59,1.38v-9.29h-29.75V394.82z"/>
	<path class="st1" d="M120.42,297.8c3.41-2.78,6.86-5.53,10.4-8.2c0.21-13.37-0.48-26.75-1.78-40.05
		c-1.51-11.45-0.83-25.92-12.36-32.36c-1.21-0.68-1.69-2.01-1.57-3.35c0.01-2.25,0.07-4.48,0.12-6.73
		c-0.05-9.07,0.39-18.16-0.18-27.21c-1.52-0.73-3.25-0.8-4.9-0.67c0-0.02,0-0.03,0-0.05c-0.76,9.24-0.76,18.45-0.8,27.7
		c-0.35,3.93,1.11,9.04-2.24,11.94c-4.5,3.47-8,8.01-9.76,13.43c-1.19,3.49-1.56,7.22-1.57,10.89c-0.02,0.7-0.35,1.19-0.8,1.46
		c0.88,5.32,0.98,10.74,1.45,16.1c0.63,10.78,0.62,21.59,0.72,32.39c4.5,3.99,9.19,7.86,13.85,11.74
		C114.21,302.55,117.38,300.22,120.42,297.8z M121.13,289.18c-0.02,0.02-0.04,0.03-0.06,0.05c0.05-0.05,0.1-0.09,0.16-0.14
		C121.19,289.12,121.16,289.15,121.13,289.18z M109.04,299c0.04,0.09,0.07,0.17,0.11,0.26c-0.08-0.07-0.16-0.14-0.24-0.2
		C108.95,299.04,108.99,299.02,109.04,299z"/>
	<path class="st1" d="M155.71,283.94c0.91,2.01,2.28,4.15,2.81,6.42c0,0,0,0,0,0C157.99,288.09,156.62,285.95,155.71,283.94
		c-1.15-2.22-2.29-4.44-3.41-6.68C153.43,279.49,154.57,281.72,155.71,283.94z"/>
	<path class="st1" d="M52.97,297.6c0.19-18.67-1.06-37.52,1.69-56.05c1-4.31,2.22-8.8,4.86-12.41c1.38-2.03,3.35-3.49,5.08-5.19
		c1.17-2.21,0.93-4.95,1.24-7.38c0.61-8.04-0.2-16.3,1.27-24.23c0.96-2.99,9.95-4.75,11.49-1.96c2.16,5.58,1.27,11.84,1.54,17.71
		c0.11,4.66-0.1,9.34,0.37,13.98c5.48,3.26,9.57,9.02,12.14,15.14c0.64-5.18,2.61-10.21,5.69-14.43c1.36-1.84,2.87-3.59,4.66-5.02
		c1.37-1.12,2.96-2.16,2.78-4.16c0.28-10.79-0.15-21.61,0.77-32.38c0.23-1.55-0.24-3.39,0.9-4.64c1.82-1.33,4.41-0.91,6.52-0.68
		c1.93,0.39,4.35,1.18,4.55,3.46c0.21,2.09,0.25,4.2,0.29,6.29c0.04,9.54-0.07,19.07-0.2,28.61c10.54,6.09,12.28,17.51,13.21,28.64
		c0.86,7.5,1.61,15,1.95,22.54c0.46,7.19,0.64,14.38,0.57,21.58c0.64-0.46,1.27-0.93,1.91-1.38c0.19-0.1,0.37-0.22,0.56-0.35
		c0.64-0.36,1.29-0.72,1.93-1.08c0,0,0,0,0,0c0.23-0.13,0.46-0.26,0.69-0.39c-0.08-0.66-0.14-1.32-0.14-2
		c-0.63-5.54,3.24-12.25,9.16-12.34c0.18,0.34,0.36,0.69,0.53,1.04c1.09,2.25,2.19,4.49,3.32,6.72c-1.12-2.23-2.23-4.47-3.32-6.72
		c-0.17-0.35-0.35-0.7-0.53-1.04c-1.55-2.97-3.32-5.83-4.46-8.99c-0.38-1.18-0.85-2.46-0.54-3.71c0.55-2.16,3-3.05,5.04-2.8
		c5.98,0.61,9.62,6.04,13.67,9.86c-0.43-5.8-1.43-11.59-0.9-17.44c0.52-5.6,2.01-11.05,3.45-16.47c1.53-5.45,3.09-11.05,6.38-15.75
		c2.4-3.43,6.16-5.63,8.6-0.85c1.47,3.79,1.5,7.98,1.7,11.99c0.58,12.53-0.33,25.03-2,37.45c5.09-2.83,9.99-6.44,15.9-7.33
		c1.82-0.21,3.93-0.73,5.53,0.46c4.02,4.21,2.8,9.63-0.07,14.45c-0.33-0.01-0.65,0-0.98,0.04c-3.23,0.08-6.5,1.01-9.33,2.64
		c2.83-1.64,6.09-2.56,9.33-2.64c0.32-0.04,0.65-0.05,0.98-0.04c1.86,0.07,3.77,0.78,5.5,0.05c4.57-3.23,10.39-5.03,15.81-2.89
		c4.66,1.81,8.92,5.16,11.43,9.53c1.33,2.72,2.23,5.67,2.75,8.69c0.47-0.17,1-0.23,1.64-0.05c0.15,0.04,0.29,0.09,0.41,0.15
		c0,0.07,0,0.14,0,0.2c0,0.05,0,0.11,0,0.16c0.02,0.92,0.06,1.84,0.12,2.76v20.62h29.75V151.95H43.63v157.61h9.05
		c0.03-0.36,0.07-0.71,0.09-1.01C52.99,304.91,52.97,301.25,52.97,297.6z"/>
	<path class="st1" d="M414.61,723.82c0.36-1.11,1.8-1.48,2.71-0.84c1.71-0.52,3.42-1.04,5.1-1.6c-1.5-0.93-0.62-3.5,1.3-3.17
		c0.94,0.41,1.74,1.05,2.47,1.77c1.82-0.75,3.59-1.62,5.28-2.68c-0.05-0.83,0.44-1.7,1.34-1.85c0.09-0.01,0.18-0.03,0.27-0.05
		c-2-1.19-3.44-3.29-3.56-5.68c-0.13-1.98-0.1-4.34,1.09-6.01c-2.12-1.72-2.81-4.62-3.75-7.08c-5.07-16.08-7.17-32.91-9.84-49.5
		c-1.7-13.49-3.84-26.94-4.82-40.51c-1.8-27.52-2.59-55.12-0.83-82.66c0.75-16.82,1.25-33.72,4.34-50.32
		c-4.16,8.61-7.07,17.7-10.22,26.7c-2.35,6.46-4.6,12.95-6.26,19.62c-3.11,13.45-5.91,27-8.04,40.64
		c-0.74,4.64-1.34,9.29-1.85,13.95c2.72-2.75,6.12-4.41,8.98-2.24c2.65,3.36-1.09,9.02-3.45,11.67c-1.3,2.1-3.37,3.53-5.78,4.11
		c-0.33,0.11-0.69,0.17-1.05,0.19c-0.21,2.63-0.4,5.27-0.57,7.9c2.97,1.99,5.48,4.99,7.15,9.08c3.14,6.25,3.98,14,1.37,20.43h7.69
		c-1.66,8.13-3.28,16.26-4.82,24.41c-0.05,0.22-0.11,0.44-0.16,0.66c-2.19,9.07-4.28,18.17-6.27,27.29
		c0.02-0.11,0.05-0.22,0.07-0.33c-0.16,0.75-0.33,1.5-0.49,2.25c-2,9.12-3.96,18.25-5.94,27.38c-0.55,2.55-1.1,5.1-1.66,7.65v6.21
		c8.63,1.14,17.22,2.54,25.78,4.18c0.09-0.04,0.19-0.09,0.28-0.13C411.83,724.74,413.21,724.27,414.61,723.82z"/>
	<path class="st1" d="M322.5,391.52c-0.67-1.23-1.29-2.49-1.83-3.78C321.21,389.03,321.83,390.29,322.5,391.52z"/>
	<path class="st1" d="M67.1,123.7h103.82c3.13-5.48,2.68-13.57,2.29-21.32c-0.48-7.99,1.27-16.63-2.11-24.13
		c-3.53-4.33-9.11-6.61-14.41-7.91c-6.91-1.44-13.99-1.54-21.01-1.93c-7.61-0.39-15.21-1.29-22.84-1.02
		c-4.28,0.11-8.54,0.4-12.82,0.34c-8.22,0.06-16.58,0.41-24.61,2.28c-1.99,0.55-4.24,0.83-5.52,2.64c-0.42,0.69-0.71,1.66-1.56,1.93
		c-1.37,2.18-0.56,5.02-0.99,7.46c-1.19,7.62-0.77,15.36-1.88,23C65.49,111.23,64.74,117.84,67.1,123.7z M164.14,118.71
		c0,0.01,0,0.02,0,0.03c0.08,0.18,0.11,0.37,0.11,0.57c0,0.88-0.77,1.62-1.7,1.62c0,0-0.01,0-0.01,0
		c-6.64-0.05-13.28-0.1-19.91-0.15c-7.17-0.05-14.33-0.11-21.5-0.17c-7.28-0.06-14.56-0.11-21.84-0.17
		c-7.29-0.05-14.59-0.11-21.88-0.17c-1.6-0.01-3.21-0.03-4.81-0.04c-0.93-0.01-1.71-0.73-1.71-1.62c0-0.12,0.01-0.23,0.04-0.34
		c-0.11-0.21-0.17-0.45-0.17-0.69c0.55-10.59-3.03-35.54,8.57-41.06c4.66-1.83,9.88-1.11,14.8-1.3c3.45-0.4,6.85-1.16,10.29-1.65
		c5.54-1.23,11,0.05,16.34,1.44c4.16,0.73,8.4,0.12,12.58-0.04c5.58-0.32,11.14,0.24,16.7,0.7c3.04,0.1,6.76,0,8.57,2.78
		c2.42,3.73,3.24,8.17,3.99,12.42C163.56,100.27,164.15,109.34,164.14,118.71z"/>
	<path class="st1" d="M218.68,598.91c-0.1-0.13-0.19-0.28-0.26-0.46c-0.12-0.33-0.13-0.68-0.04-1.01c-0.26-1.28-0.49-2.56-0.64-3.86
		c-0.09-0.58-0.11-1.17-0.12-1.75c-0.11-0.14-0.2-0.29-0.29-0.49c-0.2-0.77-0.02-1.32,0.37-1.73c0.15-1.88,0.41-3.76,0.21-5.64
		c-0.41-4.35-3.59-11.32-0.06-14.82c1.68-1.45,4.14-1.09,5.9-0.02c5.84,3.52,7.63,10.74,12.59,15.08c4.97,4.08,11.1,5.84,16.99,8.09
		c0.45-0.02,0.9,0.12,1.24,0.42c0.03,0.03,0.05,0.07,0.08,0.1c0.27,0.11,0.53,0.21,0.79,0.32c4.63,2.1,8.7,5.2,12.73,8.3v-97.7
		H43.63v115.84h184.98c-3.27-4.88-6.8-9.68-8.54-15.35C219.58,602.47,219.09,600.7,218.68,598.91z M196.89,619.54h-153v-90h11.55
		c0.06-0.46,0.14-0.91,0.24-1.37c1.91-8.79,9.62-15.25,18.23-17.1c5.27-1.17,10.18,1.84,14.28,4.83c3.14,2.55,7.27,1.98,10.79,0.62
		c14.02-6.2,28.12-10.56,39.19,3.3c4.89-4.5,11.3-7.15,17.95-7.46c4.68-0.27,9.75,0.05,13.83,2.57c4.92,3.41,9.21,8.43,10.37,14.43
		c0.01,0.06,0.01,0.12,0.02,0.18h16.56V619.54z"/>
	<path class="st1" d="M0.33,727.35c6.57-0.67,13.1-1.78,19.64-2.75c1.55-0.24,3.11-0.46,4.66-0.68V500.5H-0.25v226.9
		c0.08-0.01,0.17-0.01,0.25-0.02C0.11,727.37,0.22,727.36,0.33,727.35z"/>
	<path class="st1" d="M0,731.45c-0.08,0.01-0.16,0.01-0.25,0.02V818H0V731.45z"/>
	<path class="st1" d="M228.6,73.35c-0.35-3.72-0.63-7.78-1.85-11.39c-0.08-0.15-0.14-0.32-0.18-0.51c-0.92-2.5-2.32-4.76-4.57-6.5
		c-5.49-3.65-5.37-8.14-5.12-14.12c0.04-6.71,0.42-13.48-0.29-20.17c-1.71,0.07-3.46,0.25-5.04,0.95
		c-0.53,6.98-1.11,13.97-1.85,20.93c-0.65,3.62-1.16,7.56-3.47,10.55c-1.51,1.75-3.69,2.71-5.32,4.32
		c-4.66,6.46-4.68,15.1-5.43,22.71c-0.9,11.18-0.61,22.38-0.52,33.58c0.01,3.33,0.02,6.66,0.05,9.99h34.21
		C229.09,106.92,229.47,90.11,228.6,73.35z"/>
	<path class="st1" d="M286.34,603.21c3.74-2.72,7.89-4.89,12.07-6.45c0.13-2.57,0.31-5.14,0.47-7.71c0.19-3.11,0.54-6.21,0.8-9.31
		c0.1-1.11,0.24-2.21,0.37-3.31c0.25-2.21,0.5-4.41,0.75-6.62c0.2-1.68,0.46-3.35,0.7-5.03c0-0.03,0.01-0.05,0.01-0.08
		c0-0.04,0.01-0.07,0.02-0.11c0-0.01,0-0.02,0-0.02v0c0-0.01,0-0.02,0-0.03c0-0.01,0-0.02,0-0.03c0-0.02,0-0.03,0.01-0.04
		c0,0,0,0,0-0.01c0-0.01,0-0.02,0-0.02c0,0,0-0.01,0-0.01s0,0,0-0.01c0.17-1.21,0.34-2.42,0.51-3.64c0.04-0.25,0.08-0.51,0.12-0.77
		c0.26-1.59,0.51-3.18,0.77-4.77c0.59-2.93,1.2-5.84,1.83-8.76c0.02-0.09,0.04-0.18,0.06-0.26c0-0.01,0.01-0.02,0.01-0.02
		c0-0.01,0-0.02,0-0.03c0,0,0-0.01,0-0.01s0-0.01,0-0.01s0,0,0,0c0,0,0-0.01,0-0.01s0-0.01,0-0.01c0,0,0-0.01,0-0.01
		c0-0.01,0.01-0.02,0.01-0.03v0v0c0,0,0-0.01,0-0.02c0,0,0-0.01,0-0.01c0,0,0-0.01,0-0.01s0-0.01,0-0.01c0,0,0-0.01,0-0.01
		c0-0.01,0-0.02,0.01-0.03c0,0,0-0.01,0-0.02s0,0,0-0.01c0.01-0.03,0.02-0.06,0.02-0.09c0-0.02,0.01-0.04,0.01-0.05
		c0.69-3.14,1.41-6.26,2.14-9.39c0.57-2.41,1.15-4.8,1.75-7.2c1.35-4.58,2.81-9.14,4.59-13.57c2.04-5.08,4.17-10.13,6.33-15.17
		h-33.4V603.21z"/>
	<path class="st1" d="M62.04,94.18c-3.55-1.2-6.88-2.87-10.21-4.58c1.51,1.55,5.44,4.4,2.28,6.28c-1.61,0.47-3.37,0.15-5.04,0.26
		c1.61,0.75,3.3,1.29,5.06,1.56c0.75,0.14,1.57,0.29,2.07,0.93c1.92,2.58-4.83,6.07-6.19,7.96c2.37-0.2,4.36-1.54,6.35-2.72
		c1.62-0.92,3.28-1.77,4.74-2.95c0.5-0.25,0.92-0.69,1.37-1.05c0.2-1.85,0.37-3.71,0.42-5.57C62.6,94.33,62.31,94.3,62.04,94.18z"/>
	<path class="st1" d="M257.05,121.94c0.25-0.55,0.29-1.62,0.32-1.95c0.13-14.48,1.38-28.96,1.06-43.45
		c-0.26-5.29-0.19-10.7-2.35-15.61c-1.81-3.11-3.6-6.23-5.43-9.32c-1-1.39-2.11-2.77-2.55-4.47c-0.46-1.74-0.29-3.56-0.32-5.34
		c-0.08-5.98,0.22-11.94,0.03-17.91c-0.15-1.06-0.05-2.27-0.65-3.2c-1.51-1.26-3.77-1.52-5.67-1.36c-1.39,7.19,1.2,22.97-3.62,27.93
		c-2.05,1.84-4.42,3.45-5.61,6.05c-1.14,2.36-2.01,4.88-2.27,7.49c3.12,9.85,2.29,20.6,2.61,30.82c0.12,10.21,0.12,20.43,0.13,30.64
		c-0.03,0.43,0,0.93,0.01,1.43h23.76C256.34,123.07,256.53,122.38,257.05,121.94z"/>
	<path class="st2" d="M85.64,529.54c-0.05-0.03-0.1-0.05-0.14-0.09c-2.18-1.97,1.69-4.51,2.89-6c1.6-1.06,3.77-4.94,5.79-3.09
		c1.71,1.96-1.29,3.47-2.45,4.75c-1.34,1.27-2.66,2.55-3.79,4.03c-0.13,0.17-0.29,0.3-0.46,0.41h55.48
		c-0.97-1.49-2.01-2.93-3.2-4.24c-0.7-0.31-1.14-1.06-1.04-1.84c0.13-0.94,1.03-1.64,1.97-1.5c1.51,0.3,2.35,1.81,3.28,2.9
		c1.11,1.51,2.14,3.08,3.13,4.68h33.22c-0.01-0.06-0.01-0.12-0.02-0.18c-1.16-6-5.45-11.03-10.37-14.43
		c-4.08-2.53-9.15-2.84-13.83-2.57c-6.64,0.31-13.05,2.96-17.95,7.46c-11.07-13.86-25.17-9.5-39.19-3.3
		c-3.52,1.37-7.65,1.93-10.79-0.62c-4.1-2.98-9-6-14.28-4.83c-8.6,1.85-16.31,8.3-18.23,17.1c-0.1,0.46-0.18,0.91-0.24,1.37H85.64z"
		/>
	<path class="st3" d="M87.95,529.13c1.12-1.47,2.44-2.76,3.79-4.03c1.16-1.28,4.16-2.79,2.45-4.75c-2.02-1.85-4.19,2.04-5.79,3.09
		c-1.2,1.49-5.08,4.03-2.89,6c0.05,0.04,0.1,0.06,0.14,0.09h1.84C87.66,529.43,87.82,529.3,87.95,529.13z"/>
	<path class="st3" d="M143.98,524.86c-0.93-1.09-1.77-2.6-3.28-2.9c-0.94-0.14-1.84,0.56-1.97,1.5c-0.11,0.78,0.34,1.53,1.04,1.84
		c1.2,1.31,2.24,2.75,3.2,4.24h4.14C146.12,527.94,145.09,526.37,143.98,524.86z"/>
	<path class="st4" d="M180.33,529.54h-33.22h-4.14H87.49h-1.84h-30.2H43.89v90h153v-90H180.33z M193.82,537.25
		c-5.56,0.08-11.12,0.14-16.69,0.22c-7.36,0.1-14.72,0.19-22.08,0.29c-7.55,0.1-15.1,0.2-22.66,0.3c-7.55,0.09-15.11,0.2-22.67,0.29
		c-7.59,0.09-15.18,0.2-22.77,0.3c-7.57,0.1-15.15,0.2-22.72,0.29c-5.86,0.08-11.73,0.15-17.59,0.23c-0.01,0-0.01,0-0.02,0
		c-0.95,0-1.72-0.85-1.71-1.78c0.02-0.97,0.82-1.71,1.78-1.72c7.57-0.1,15.14-0.2,22.71-0.3c7.59-0.1,15.17-0.2,22.76-0.3
		c7.49-0.09,14.98-0.2,22.48-0.29c7.66-0.1,15.32-0.2,22.98-0.3c7.51-0.09,15.01-0.19,22.52-0.29c7.3-0.09,14.61-0.19,21.92-0.28
		c3.94-0.05,7.88-0.1,11.81-0.16c0.96-0.01,1.74,0.84,1.73,1.78C195.58,536.51,194.78,537.24,193.82,537.25z"/>
	<path class="st5" d="M193.87,533.75c-3.94,0.05-7.88,0.11-11.81,0.16c-7.3,0.09-14.61,0.19-21.92,0.28
		c-7.51,0.1-15.01,0.2-22.52,0.29c-7.66,0.1-15.32,0.2-22.98,0.3c-7.49,0.09-14.98,0.2-22.48,0.29c-7.59,0.1-15.17,0.2-22.76,0.3
		c-7.57,0.1-15.14,0.2-22.71,0.3c-0.95,0.01-1.76,0.75-1.78,1.72c-0.01,0.93,0.76,1.78,1.71,1.78c0.01,0,0.01,0,0.02,0
		c5.86-0.08,11.73-0.15,17.59-0.23c7.57-0.1,15.15-0.2,22.72-0.29c7.59-0.1,15.18-0.2,22.77-0.3c7.55-0.09,15.11-0.2,22.67-0.29
		c7.55-0.1,15.11-0.2,22.66-0.3c7.36-0.09,14.72-0.19,22.08-0.29c5.57-0.07,11.13-0.14,16.69-0.22c0.95-0.01,1.76-0.75,1.78-1.72
		C195.61,534.6,194.83,533.74,193.87,533.75z"/>
	<path class="st6" d="M56.48,294.22c-0.12-14.91-0.38-29.83,0.68-44.71c0.49-6.05,1.56-12.29,4.67-17.61
		c2.06-3.49,6.76-5.17,6.94-9.66c1.15-8.45,0.61-17.01,1.22-25.5c0.09-1.03,0.09-2.09,0.35-3.09c1.57-0.97,3.56-1.17,5.38-1.12
		c1.64,8.05,0.59,16.41,1,24.58c0.03,1.68,0.1,3.36,0.27,5.04c0.1,0.93,0.3,1.9,1.1,2.5c7.01,4.07,11.14,11.86,13.23,19.47
		c2.17,15.1,2.2,30.49,2.28,45.77c1.16,1.08,2.34,2.15,3.54,3.21c-0.1-10.8-0.09-21.6-0.72-32.39c-0.48-5.36-0.57-10.79-1.45-16.1
		c0.45-0.27,0.79-0.76,0.8-1.46c0.02-3.67,0.39-7.4,1.57-10.89c1.77-5.42,5.27-9.96,9.76-13.43c3.36-2.91,1.89-8.01,2.24-11.94
		c0.04-9.25,0.04-18.46,0.8-27.7c0,0.02,0,0.03,0,0.05c1.64-0.13,3.38-0.06,4.9,0.67c0.56,9.05,0.12,18.14,0.18,27.21
		c-0.04,2.24-0.11,4.48-0.12,6.73c-0.12,1.34,0.37,2.67,1.57,3.35c11.54,6.44,10.86,20.91,12.36,32.36c1.3,13.3,2,26.69,1.78,40.05
		c1.16-0.87,2.33-1.73,3.51-2.58c0.07-7.19-0.1-14.39-0.57-21.58c-0.34-7.54-1.09-15.04-1.95-22.54
		c-0.93-11.12-2.67-22.54-13.21-28.64c0.12-9.54,0.23-19.07,0.2-28.61c-0.04-2.09-0.08-4.21-0.29-6.29
		c-0.21-2.29-2.62-3.08-4.55-3.46c-2.11-0.23-4.7-0.65-6.52,0.68c-1.14,1.25-0.67,3.09-0.9,4.64c-0.92,10.77-0.49,21.59-0.77,32.38
		c0.18,2-1.41,3.04-2.78,4.16c-1.79,1.43-3.29,3.18-4.66,5.02c-3.08,4.22-5.04,9.25-5.69,14.43c-2.57-6.12-6.66-11.88-12.14-15.14
		c-0.47-4.64-0.26-9.32-0.37-13.98c-0.27-5.87,0.62-12.13-1.54-17.71c-1.54-2.79-10.53-1.03-11.49,1.96
		c-1.47,7.93-0.66,16.2-1.27,24.23c-0.31,2.43-0.07,5.17-1.24,7.38c-1.73,1.7-3.7,3.16-5.08,5.19c-2.63,3.62-3.86,8.11-4.86,12.41
		c-2.75,18.53-1.5,37.38-1.69,56.05c-0.01,3.65,0.02,7.31-0.2,10.96c-0.02,0.3-0.06,0.64-0.09,1.01h3.51
		C56.56,304.46,56.47,299.33,56.48,294.22z"/>
	<path class="st6" d="M43.63,714v-64.54h159.86c-1.02-4.19-2.01-8.39-2.93-12.61c-0.43-1.98-0.83-3.96-1.2-5.95
		c-0.32-1.72-0.64-3.45-0.89-5.19h33.2c-0.54-1.66-1.27-3.27-2.19-4.81c-0.29-0.44-0.58-0.87-0.87-1.31H43.63V503.74h224.54v97.7
		c0.25,0.19,0.5,0.38,0.75,0.58c0.84-0.02,1.63,0.53,1.78,1.37c0.69,0.53,1.39,1.05,2.08,1.56c2.05,1.68,4.02,3.51,5.8,5.5
		c2.2-2.74,4.86-5.15,7.75-7.24V500.5H24.63v223.41c0.03,0,0.07-0.01,0.1-0.01V714H43.63z"/>
	<path class="st6" d="M80.64,479.62v-6.32h-37V331.55h37v-21.99H56.2h-3.51h-9.05V151.95h224.54v157.61h-29.75v21.99h29.75v9.29
		c0.82,1.92,1.62,3.84,2.44,5.76c0.01,0.04,0.03,0.09,0.05,0.14c1.05-0.36,2.31-0.84,3.65-1.3c0.24-1.23,0.48-2.46,0.75-3.69
		c1.24-5.69,2.58-11.36,4.01-17.01c1.39-5.52,2.99-10.98,4.77-16.38c0.77-2.32,1.62-4.61,2.49-6.89v-248h-18.16v70.23h-8.12
		c-0.71,1.14-1.93,1.91-3.12,0.83c-0.24-0.23-0.38-0.53-0.45-0.83h-23.76c0.04,1.39-0.04,2.81-1.76,2.9c-0.99,0-1.7-0.8-1.75-1.75
		c0-0.38,0-0.77-0.01-1.15h-34.21c0,0.17,0,0.34,0,0.52c0,0.96-0.8,1.75-1.75,1.75c-0.95,0-1.75-0.8-1.75-1.75c0-0.17,0-0.34,0-0.52
		h-16.7c-4.3,11.41-18.11,10.27-28.16,10.2c-4.37-0.06-9.16-0.33-13.38-0.64c-9.13-0.56-18.29-0.02-27.43-0.16
		c-5.39,0.08-10.77-0.34-16.17-0.46c-5.7-0.14-11.5-0.34-16.95-2.2c-2.82-1.1-6.59-1.18-8.25-4.06c-0.45-0.87-0.81-1.76-1.12-2.68
		H43.63V96.66c-0.7-1.23-0.57-2.09,0-2.69V56.15h-19v423.46H80.64z"/>
	<path class="st6" d="M67.1,123.7c0.12,0.3,0.24,0.6,0.38,0.9c1.2,1.5,3.56,1.41,5.24,2.17c1.42,0.46,2.84,0.91,4.31,1.24
		c5.92,1.26,12,1.02,18.02,1.31c9.07,0.48,18.17,0.29,27.25,0.18c11.71-0.04,23.36,1.38,35.08,0.84c7.24-0.14,11.3-2.73,13.54-6.64
		H67.1z"/>
	<path class="st7" d="M64.33,93.25c-0.25,0.6-0.83,0.98-1.44,1.05c-0.05,1.86-0.23,3.71-0.42,5.57c0.47-0.38,0.96-0.68,1.61-0.6
		c0.96,0.13,1.61,1.02,1.5,1.97c-0.13,1.09-1.04,1.58-1.87,2.11c-0.55,0.43-1.12,0.83-1.69,1.22c-0.12,1.59-0.18,3.19-0.1,4.8
		c-0.09,4.75-0.11,9.78,1.42,14.33c0.31,0.91,0.67,1.81,1.12,2.68c1.66,2.88,5.43,2.96,8.25,4.06c5.45,1.86,11.25,2.06,16.95,2.2
		c5.39,0.13,10.77,0.54,16.17,0.46c9.14,0.14,18.3-0.4,27.43,0.16c4.22,0.31,9.01,0.58,13.38,0.64c10.04,0.08,23.86,1.21,28.16-10.2
		c0.01-0.02,0.02-0.04,0.03-0.07c3.65-8.77,1.51-18.41,1.84-27.61c-0.21-6.93,0.97-15.4-3.78-21.1c-5.14-5.2-12.47-7.77-19.6-8.73
		c-7.04-1.02-14.17-0.95-21.25-1.49c-9.64-0.99-19.3-0.94-28.96-0.48c-7.13-0.12-14.25,0.25-21.34,1.08
		c-3.27,0.31-6.45,1.11-9.62,1.95c-2.58,0.59-4.77,2.42-5.9,4.79c-2.85,1.87-1.98,5.99-2.31,8.94c-0.48,3.26-0.78,6.53-0.92,9.81
		c0.14,0.05,0.28,0.1,0.41,0.16C64.27,91.34,64.7,92.37,64.33,93.25z M67.33,82.04c0.44-2.44-0.38-5.28,0.99-7.46
		c0.85-0.28,1.14-1.24,1.56-1.93c1.28-1.81,3.53-2.09,5.52-2.64c8.03-1.87,16.39-2.22,24.61-2.28c4.28,0.06,8.54-0.24,12.82-0.34
		c7.63-0.27,15.23,0.63,22.84,1.02c7.03,0.38,14.1,0.49,21.01,1.93c5.29,1.3,10.87,3.59,14.41,7.91c3.37,7.5,1.63,16.14,2.11,24.13
		c0.39,7.75,0.84,15.84-2.29,21.32c-2.24,3.92-6.3,6.5-13.54,6.64c-11.72,0.54-23.36-0.88-35.08-0.84
		c-9.08,0.11-18.17,0.3-27.25-0.18c-6.02-0.29-12.1-0.05-18.02-1.31c-1.46-0.33-2.88-0.79-4.31-1.24c-1.68-0.75-4.04-0.67-5.24-2.17
		c-0.14-0.3-0.26-0.6-0.38-0.9c-2.36-5.86-1.6-12.47-1.64-18.66C66.56,97.4,66.14,89.67,67.33,82.04z"/>
	<path class="st7" d="M43.63,96.66C43.64,96.67,43.64,96.67,43.63,96.66c1.99,2.21,5.03,3.21,7.8,4.06c0,0,0,0,0,0
		c-2.26,2.03-7.9,5.55-4.58,8.92c0.55,0.45,1.29,0.57,1.98,0.57c3.85,0.06,7.15-1.99,10.33-3.91c0.99-0.52,1.93-1.1,2.84-1.73
		c0.57-0.39,1.14-0.8,1.69-1.22c0.83-0.53,1.74-1.02,1.87-2.11c0.11-0.95-0.54-1.84-1.5-1.97c-0.65-0.08-1.15,0.22-1.61,0.6
		c-0.45,0.36-0.86,0.8-1.37,1.05c-1.46,1.18-3.11,2.03-4.74,2.95c-1.99,1.18-3.98,2.52-6.35,2.72c1.36-1.89,8.11-5.39,6.19-7.96
		c-0.5-0.64-1.31-0.8-2.07-0.93c-1.75-0.27-3.45-0.81-5.06-1.56c1.67-0.12,3.43,0.2,5.04-0.26c3.16-1.88-0.78-4.73-2.28-6.28
		c3.33,1.71,6.66,3.38,10.21,4.58c0.27,0.12,0.57,0.15,0.85,0.12c0.62-0.07,1.19-0.45,1.44-1.05c0.38-0.88-0.05-1.92-0.93-2.29
		c-0.14-0.06-0.27-0.1-0.41-0.16c-1.79-0.7-3.63-1.28-5.34-2.19c-2.43-0.94-8.4-5.21-10.59-3.45c-2.46,2.35,1.2,5.73,2.85,7.48
		c-1.69-0.06-5.04,0.03-6.28,1.33C43.06,94.57,42.94,95.43,43.63,96.66z"/>
	<path class="st2" d="M150.02,75.67c-5.55-0.46-11.12-1.02-16.7-0.7c-4.18,0.16-8.42,0.77-12.58,0.04
		c-5.34-1.38-10.8-2.67-16.34-1.44c-3.44,0.49-6.84,1.25-10.29,1.65c-4.92,0.19-10.14-0.53-14.8,1.3
		c-11.6,5.53-8.02,30.47-8.57,41.06c0,0.25,0.06,0.48,0.17,0.69c-0.03,0.11-0.04,0.22-0.04,0.34c0,0.89,0.78,1.61,1.71,1.62
		c1.6,0.01,3.21,0.03,4.81,0.04c7.3,0.05,14.59,0.11,21.88,0.17c7.28,0.06,14.56,0.11,21.84,0.17c7.17,0.05,14.34,0.11,21.5,0.17
		c6.64,0.05,13.28,0.11,19.91,0.15c0,0,0,0,0.01,0c0.93,0,1.7-0.75,1.7-1.62c0-0.2-0.04-0.39-0.11-0.57c0-0.01,0-0.02,0-0.03
		c0.01-9.38-0.58-18.44-1.56-27.84c-0.75-4.26-1.58-8.69-3.99-12.42C156.78,75.67,153.06,75.78,150.02,75.67z M89.95,78.3
		c2.13,0.07,1.68,2.52,1.76,4c0.01,6.49-0.53,12.98-0.25,19.47c-0.13,1.66,0.66,3.56-0.13,5.08c-0.84,1.18-2.94,0.65-3.05-0.81
		c-0.61-7.42-0.11-14.86,0.02-22.28C88.53,81.96,87.27,78.54,89.95,78.3z M109.29,104.75c-0.04,2.23-3.35,2.26-3.43,0
		c-0.14-4.09-1.04-8.11-1.2-12.21c-0.16-3.64-0.15-7.28-0.28-10.92c0.1-1.82-0.97-5.49,1.89-5.39c0.95,0.13,1.55,1.01,1.47,1.92
		c-0.04,2.56,0.17,5.12,0.19,7.68C107.76,92.19,108.84,98.44,109.29,104.75z M122.25,77.56c0.93,0,1.71,0.78,1.71,1.71
		c0.1,9.02,0.49,18.04,0.76,27.05c-0.03,2.23-3.35,2.26-3.42,0c-0.29-7.49-0.43-14.97-0.71-22.46
		C120.83,81.98,119.47,77.74,122.25,77.56z M139.09,106.62c-0.04,2.24-3.36,2.26-3.42,0c0.05-8.89-0.89-17.8-0.41-26.68
		c0.07-0.93,1.04-1.59,1.93-1.46c1.22,0.12,1.63,1.48,1.43,2.48C138.34,89.51,139.1,98.06,139.09,106.62z M150.22,101.61
		c-0.94,0-1.7-0.78-1.72-1.71c0.01-6.02-0.13-12.03-0.37-18.05c-0.13-1.47-0.09-3.85,1.97-3.63c0.93,0.13,1.6,1.02,1.46,1.95
		c-0.08,3.24,0.21,6.48,0.26,9.73c0.1,3.34,0.06,6.67,0.1,10.01C151.94,100.84,151.15,101.61,150.22,101.61z"/>
	<path class="st3" d="M88.27,106.04c0.11,1.47,2.21,1.99,3.05,0.81c0.79-1.52,0-3.42,0.13-5.08c-0.28-6.49,0.26-12.98,0.25-19.47
		c-0.08-1.49,0.37-3.93-1.76-4c-2.68,0.25-1.42,3.66-1.66,5.46C88.16,91.18,87.66,98.62,88.27,106.04z"/>
	<path class="st3" d="M107.74,78.16c0.08-0.91-0.51-1.8-1.47-1.92c-2.86-0.1-1.79,3.57-1.89,5.39c0.13,3.64,0.12,7.28,0.28,10.92
		c0.16,4.09,1.06,8.12,1.2,12.21c0.08,2.26,3.39,2.23,3.43,0c-0.45-6.31-1.53-12.56-1.37-18.91
		C107.91,83.28,107.69,80.72,107.74,78.16z"/>
	<path class="st3" d="M121.29,106.32c0.08,2.26,3.4,2.23,3.42,0c-0.26-9.01-0.65-18.03-0.76-27.05c0-0.93-0.78-1.71-1.71-1.71
		c-2.78,0.18-1.41,4.41-1.67,6.3C120.86,91.35,121,98.84,121.29,106.32z"/>
	<path class="st3" d="M137.18,78.47c-0.89-0.12-1.86,0.53-1.93,1.46c-0.48,8.88,0.46,17.79,0.41,26.68c0.07,2.26,3.38,2.24,3.42,0
		c0.02-8.56-0.75-17.11-0.48-25.66C138.81,79.96,138.4,78.59,137.18,78.47z"/>
	<path class="st3" d="M151.58,80.17c0.14-0.93-0.53-1.82-1.46-1.95c-2.07-0.21-2.1,2.16-1.97,3.63c0.24,6.01,0.38,12.03,0.37,18.05
		c0.01,0.93,0.77,1.71,1.72,1.71c0.92,0,1.72-0.78,1.71-1.71c-0.04-3.34,0-6.67-0.1-10.01C151.79,86.65,151.5,83.41,151.58,80.17z"
		/>
	<path class="st6" d="M193.26,125.97c0.96,0,1.75-0.8,1.75-1.75c0-0.17,0-0.34,0-0.52c-0.03-3.33-0.04-6.66-0.05-9.99
		c-0.09-11.2-0.38-22.4,0.52-33.58c0.75-7.61,0.77-16.25,5.43-22.71c1.63-1.6,3.81-2.57,5.32-4.32c2.31-2.99,2.82-6.93,3.47-10.55
		c0.74-6.96,1.32-13.95,1.85-20.93c1.58-0.7,3.32-0.88,5.04-0.95c0.71,6.68,0.33,13.45,0.29,20.17c-0.25,5.98-0.36,10.47,5.12,14.12
		c2.24,1.74,3.65,4,4.57,6.5c0.04,0.19,0.1,0.36,0.18,0.51c1.22,3.61,1.5,7.67,1.85,11.39c0.87,16.76,0.49,33.57,0.61,50.35
		c0,0.38,0,0.77,0.01,1.15c0.05,0.95,0.76,1.75,1.75,1.75c1.71-0.09,1.79-1.51,1.76-2.9c-0.01-0.5-0.04-1-0.01-1.43
		c-0.01-10.21-0.01-20.43-0.13-30.64c-0.32-10.22,0.52-20.97-2.61-30.82c0.27-2.61,1.13-5.13,2.27-7.49
		c1.19-2.6,3.56-4.21,5.61-6.05c4.83-4.96,2.24-20.74,3.62-27.93c1.91-0.16,4.16,0.1,5.67,1.36c0.6,0.93,0.5,2.14,0.65,3.2
		c0.19,5.97-0.11,11.93-0.03,17.91c0.03,1.77-0.13,3.6,0.32,5.34c0.44,1.7,1.54,3.08,2.55,4.47c1.84,3.09,3.62,6.21,5.43,9.32
		c2.16,4.9,2.09,10.32,2.35,15.61c0.32,14.48-0.93,28.96-1.06,43.45c-0.03,0.32-0.08,1.39-0.32,1.95c-0.52,0.44-0.71,1.14-0.57,1.76
		c0.07,0.31,0.21,0.6,0.45,0.83c1.19,1.08,2.42,0.31,3.12-0.83c0.32-0.52,0.54-1.12,0.59-1.66c0.5-3.4,0.19-6.88,0.45-10.31
		c0.18-5.54,0.31-11.09,0.54-16.62c0.39-7.38,0.54-14.77,0.16-22.14c-0.31-5.59-0.79-11.52-4.09-16.24
		c-1.51-2.23-2.56-4.72-4.07-6.94c-0.99-1.46-2.3-2.84-2.32-4.71c-0.08-4.95-0.02-9.91,0.04-14.86c-0.17-3.92,0.82-8.59-1.66-11.94
		c-1.91-1.93-4.84-2.47-7.46-2.51c-1.94-0.13-4.09,0.84-4.2,3c-0.41,2.97-0.49,5.99-0.5,8.99c-0.03,3.55-0.15,7.09-0.38,10.64
		c-0.23,2.11-0.18,4.5-1.6,6.21c-2.62,2.23-5.36,4.47-6.73,7.75c-0.27,0.62-0.81,1.89-1.31,3.34c-0.47-0.63-0.98-1.23-1.54-1.81
		c-1.5-1.74-3.76-2.8-4.94-4.8c-1-2.32-0.67-4.93-0.68-7.4c0.11-5.12,0.18-10.25,0.08-15.38c-0.25-2.75,0.41-6.39-1.47-8.61
		c-0.89-0.75-2.12-0.55-3.2-0.5c-2.29,0.16-4.67,0.52-6.65,1.74c-1.45,1.09-0.97,3.07-1.2,4.66c-0.3,3.6-0.66,7.2-0.98,10.79
		c-0.52,5.43-0.55,11.24-3.16,16.17c-2.39,2.49-5.92,3.85-7.33,7.23c-3.4,6.74-3.88,14.48-4.45,21.88
		c-0.94,11.27-0.64,22.57-0.55,33.87c0,3.38,0.02,6.76,0.05,10.14c0,0.17,0,0.34,0,0.52C191.51,125.17,192.3,125.97,193.26,125.97z"
		/>
	<path class="st7" d="M548.47,769.82c-12.23-6.51-24.96-11.68-37.67-16.76c-7-2.78-14.09-5.21-21.23-7.44
		c-0.39,0.9-0.9,1.75-1.62,2.47c-1.82,1.33-4.32,1.12-6.45,1.57c-11.09,1.99-22.27,3.12-33.53,3.6c-7.19,0.05-14.35,0.4-21.54,0.44
		c-7.55-0.4-15.07-1.38-22.61-1.97c-3.8-0.32-7.62-0.44-11.41-0.95c-2.29-0.41-4.9-0.73-6.76-2.21c-1.61-2.52,1.25-5.22,2.63-7.19
		c4.02-4.67,8.85-8.69,14.14-11.93c0.09-0.92,0.83-1.69,1.84-1.65c0.16,0.09,0.32,0.2,0.48,0.29c1.77-0.98,3.59-1.88,5.44-2.68
		c-8.56-1.64-17.16-3.05-25.78-4.18v32.53h-14.23v-2.33H232.4c-2.05-7.49-4.12-14.98-6.2-22.46c0,0.01,0.01,0.02,0.01,0.03
		c-1.42-5.14-2.88-10.27-4.35-15.39c-26.47-0.39-52.95-0.58-79.4,1.25c-16.74,0.97-33.5,1.03-50.23,2.06
		c-16.19,1.18-32.38,2.58-48.53,4.49v14.03h-0.29H25.08h-0.34v-11.52c-0.03,0-0.07,0.01-0.1,0.01c-1.55,0.23-3.11,0.44-4.66,0.68
		c-6.54,0.98-13.07,2.08-19.64,2.75c-0.11,0.01-0.22,0.02-0.34,0.03c-0.08,0.01-0.17,0.01-0.25,0.02v4.08
		c0.08-0.01,0.16-0.01,0.25-0.02V818h612.05c-4.18-3.83-8.34-7.69-12.63-11.34C583.14,793.17,566.71,779.53,548.47,769.82z"/>
	<path class="st7" d="M307.43,167.85c0.49-0.03,0.99-0.07,1.48-0.13c2.35-0.27,4.71-0.64,7.01-1.24c2.93-0.77,5.82-1.76,8.56-3.05
		c2.8-1.32,5.47-2.87,8.02-4.63c0.05-0.04,0.1-0.07,0.15-0.11c0.01-0.01,0.01-0.01,0.02-0.01c0.07-0.05,0.13-0.09,0.2-0.14
		c3.12-2.16,6.09-4.49,8.98-6.94c1.32-1.11,2.6-2.25,3.86-3.43c2.36-0.65,5.06-0.12,7.2,1.11c6.89,3.98,13.79,8.05,20.27,12.69
		c3.46,2.59,6.84,5.32,10.38,7.76c0.65,0.44,1.32,0.84,1.99,1.26c2.16-1.83,5.86-2.35,8.08-0.7c2.83,2.07,3.9,6.01,2.98,9.32
		c-1.09,3.69-4.49,6.19-7.91,7.62c-0.53,0.16-1.2,0.45-1.88,0.67h0c-0.32,2.04-0.68,4.08-1.09,6.11c5.24-0.75,10.48-3.45,12.71-8.83
		c1.85-5.58,3.36-11.36,4.77-17.12c0.71-5.98,0.6-12.14,0.1-18.15c-1.35-12.45-8.8-25.76-17.36-33.44c-5.47-5.42-10.9-7.4-18.11-6.5
		c-5.12,0.59-14.22,0.88-18.82,4.27c-0.05-0.03-0.1-0.06-0.16-0.09c-5.18-2.23-10.77-0.42-15.95,0.94
		c-15.23,4.82-29.02,17.05-34.79,34.17c-1.96,6.49-5.22,12.34-7.1,18.85c-1.96,6.53,7.39,8.75,11.38,9.82
		c2.48,0.54,5.02,0.59,7.48,0.16c-0.51-2.28-1.04-4.55-1.63-6.81C308.09,170.21,307.57,169,307.43,167.85z M308.93,165.24
		c0.1-0.06,0.2-0.12,0.3-0.17c0.12,0,0.25,0.02,0.36,0.05C309.38,165.16,309.16,165.2,308.93,165.24z M367.04,129.63
		c2.15,0.82,1.03,4.03-1.14,3.31c-2.64-1.24-5.51-1.68-8.31-2.2c-0.87-0.39-1.19-1.53-0.77-2.35
		C357.85,126.01,365.16,128.89,367.04,129.63z M358.36,121.96c-0.21-3.97,6.74-1.43,8.83-0.78c2.16,0.77,1.01,4.04-1.14,3.31
		c-1.57-0.56-3.49-1.08-5.11-1.15C359.84,123.5,358.59,123.21,358.36,121.96z M357.67,135.05c6.3,1.9,12.22,4.89,18.09,7.84
		c2.02,1.05,0.47,4.14-1.58,3.13c-4.39-2.22-8.81-4.41-13.4-6.2c-1.22-0.49-2.44-0.95-3.64-1.3c-0.99-0.2-1.74-1.07-1.52-2.11
		C355.79,135.53,356.75,134.8,357.67,135.05z M307.14,152.66c1.87-0.13,5-2.23,5.93,0.35c0.24,0.92-0.34,1.9-1.26,2.13
		c-1.85,0.19-5,2.21-5.93-0.35C305.65,153.89,306.21,152.87,307.14,152.66z M303.79,159.85c4.6,0.57,9.35-0.92,13.38-3.04
		c0.85-0.43,1.9-0.21,2.39,0.65c0.99,1.92-1.18,2.7-2.57,3.34c-4.39,1.97-9.64,3.42-14.43,2.32
		C300.37,162.05,301.95,159.21,303.79,159.85z"/>
	<path class="st6" d="M355.61,136.42c-0.22,1.04,0.53,1.91,1.52,2.11c1.21,0.34,2.42,0.81,3.64,1.3c4.59,1.78,9.01,3.97,13.4,6.2
		c2.05,1.01,3.6-2.07,1.58-3.13c-5.86-2.95-11.78-5.94-18.09-7.84C356.75,134.8,355.79,135.53,355.61,136.42z"/>
	<path class="st6" d="M356.82,128.38c-0.42,0.82-0.1,1.96,0.77,2.35c2.8,0.53,5.67,0.96,8.31,2.2c2.17,0.72,3.29-2.48,1.14-3.31
		C365.16,128.89,357.85,126.01,356.82,128.38z"/>
	<path class="st6" d="M360.93,123.34c1.62,0.07,3.54,0.59,5.11,1.15c2.16,0.73,3.3-2.54,1.14-3.31c-2.09-0.64-9.04-3.19-8.83,0.78
		C358.59,123.21,359.84,123.5,360.93,123.34z"/>
	<path class="st6" d="M302.56,163.13c4.78,1.09,10.03-0.36,14.43-2.32c1.39-0.63,3.56-1.42,2.57-3.34
		c-0.49-0.86-1.54-1.08-2.39-0.65c-4.03,2.12-8.79,3.61-13.38,3.04C301.95,159.21,300.37,162.05,302.56,163.13z"/>
	<path class="st6" d="M311.81,155.15c0.93-0.23,1.5-1.21,1.26-2.13c-0.93-2.58-4.06-0.48-5.93-0.35c-0.93,0.21-1.49,1.23-1.26,2.13
		C306.81,157.36,309.96,155.34,311.81,155.15z"/>
	<path class="st0" d="M439.52,712.59c0.5-0.03,1.02-0.06,1.54-0.1c0.27-1.03,0.73-2.02,1.22-2.83c0.23-0.35,0.45-0.72,0.67-1.07
		c-0.63-0.15-1.25-0.33-1.86-0.51c-0.58,0.79-1.17,1.56-1.81,2.3C439.46,711.21,439.54,711.97,439.52,712.59z"/>
	<g>
		<path class="st0" d="M490.1,741.83c0.24-2.73,0.34-5.45,0.29-8.19c-0.28-6.78-1.86-13.48-4.52-19.72
			c-0.48-1.05-0.98-2.11-1.74-2.99c-0.59-0.74-0.32-1.91,0.42-2.44c0.16-0.09,0.31-0.16,0.46-0.21c-0.24-0.42-0.49-0.84-0.75-1.25
			c-0.73,0.48-1.58,0.86-2.6,1.12c-3.95,1.11-8.04,1.62-12.12,1.87c-5.95,0.69-11.97,0.94-17.91,0.27
			c-2.75-0.31-5.48-0.82-8.18-1.58c-0.17-0.04-0.33-0.09-0.5-0.13c-0.22,0.36-0.44,0.72-0.67,1.07c-0.49,0.8-0.96,1.8-1.22,2.83
			c2.15-0.13,4.4-0.16,6.16,1.17c0.33,0.27,0.63,0.57,0.92,0.9c1.03,1.18,1.74,2.71,1.62,4.28c-0.79,3.96-4.11,4.76-6.95,3.53
			c-1.16-0.5-2.23-1.33-3.02-2.44c-0.19-0.27-0.37-0.56-0.53-0.86c-0.09,1.7-0.24,3.39-0.45,5.09c-0.12,0.94-1.15,1.56-2.05,1.39
			c-1.03-0.18-1.6-1.25-1.37-2.24c0.2-1.65,0.3-3.3,0.4-4.95c-1.2,0.39-2.44,0.79-3.57,0.26c-0.49-0.29-0.73-0.8-0.76-1.32
			c-1.69,1.07-3.45,1.93-5.28,2.68c1.29,1.28,2.36,2.87,3.61,4.14c1.51,1.71-1.05,4.02-2.6,2.34c-1.56-1.69-2.89-3.65-4.74-5.05
			c0.09,0.05,0.18,0.11,0.29,0.13c-0.12-0.05-0.23-0.1-0.33-0.16c-1.68,0.56-3.39,1.08-5.1,1.6c0.28,0.2,0.51,0.49,0.64,0.89
			c1.17,1.89,2.47,3.73,3.82,5.5c0.87,0.8,1.41,2.16,0.38,3.07c-0.7,0.63-1.84,0.59-2.47-0.12c-1.69-1.98-3.12-4.19-4.56-6.35
			c-0.25-0.42-0.6-0.91-0.61-1.43c-0.02-0.26,0.01-0.5,0.08-0.71c-1.39,0.45-2.78,0.92-4.15,1.45c-0.09,0.04-0.19,0.09-0.28,0.13
			c-1.85,0.8-3.67,1.7-5.44,2.68c5.17,2.94,9.14,8.04,12.1,13.2c1.32,2.24,2.34,4.65,3.04,7.15c0.31,0.89-0.15,1.93-1.05,2.24
			c-0.86,0.31-1.97-0.14-2.24-1.05c-1.98-6.56-5.98-12.68-11.34-16.97c-0.91-0.79-2.22-1.25-2.73-2.39
			c-0.09-0.28-0.12-0.55-0.09-0.82c-5.28,3.24-10.11,7.26-14.14,11.93c-1.39,1.96-4.24,4.67-2.63,7.19c1.86,1.48,4.48,1.8,6.76,2.21
			c3.79,0.51,7.61,0.63,11.41,0.95c7.54,0.59,15.06,1.57,22.61,1.97c7.19-0.04,14.35-0.38,21.54-0.44
			c11.26-0.48,22.44-1.61,33.53-3.6c2.13-0.45,4.63-0.24,6.45-1.57c0.71-0.72,1.22-1.56,1.62-2.47c0.31-0.71,0.55-1.46,0.72-2.23
			C490.05,742.94,489.98,742.36,490.1,741.83z M387.61,745.39c-0.01-0.09-0.02-0.18-0.02-0.27c0.01,0,0.02,0.01,0.03,0.01
			C387.62,745.21,387.61,745.3,387.61,745.39z M485.57,726.83c-5.37,3.51-9.8,8.45-12.99,14c-0.94,1.67-1.83,3.38-2.72,5.08
			c-0.44,0.85-1.48,1.23-2.34,0.81c-0.84-0.41-1.25-1.49-0.81-2.34c0.89-1.71,1.79-3.41,2.73-5.1c3.38-5.98,8.1-11.27,13.8-15.12
			c1.48-1.18,4.91-2.54,5.09,0.45C488.28,726.21,486.58,726.13,485.57,726.83z"/>
		<path class="st0" d="M444.91,719.42c0.08,0.01,0.16,0.04,0.24,0.05c0.5,0,0.86-0.38,1.09-0.79c0.05-0.32-0.02-0.64-0.15-0.94
			c-0.25-0.61-0.77-1.17-1.28-1.49c-1.05-0.45-2.27-0.27-3.39-0.29C442.35,717.27,443.16,719.14,444.91,719.42z"/>
	</g>
	<path class="st8" d="M414.61,723.82c-0.07,0.21-0.1,0.45-0.08,0.71c0.01,0.51,0.35,1,0.61,1.43c1.44,2.16,2.87,4.37,4.56,6.35
		c0.63,0.71,1.77,0.76,2.47,0.12c1.03-0.92,0.49-2.27-0.38-3.07c-1.36-1.77-2.66-3.6-3.82-5.5c-0.13-0.4-0.36-0.69-0.64-0.89
		C416.41,722.34,414.97,722.72,414.61,723.82z"/>
	<path class="st8" d="M422.42,721.38c0.1,0.06,0.21,0.12,0.33,0.16c-0.11-0.02-0.2-0.08-0.29-0.13c1.85,1.4,3.17,3.36,4.74,5.05
		c1.55,1.67,4.11-0.63,2.6-2.34c-1.25-1.27-2.32-2.85-3.61-4.14c-0.73-0.73-1.53-1.36-2.47-1.77
		C421.79,717.88,420.91,720.45,422.42,721.38z"/>
	<path class="st8" d="M448.14,714.56c-0.28-0.33-0.59-0.63-0.92-0.9c-1.76-1.34-4.01-1.31-6.16-1.17c-0.52,0.03-1.04,0.07-1.54,0.1
		c0.03-0.61-0.06-1.38-0.23-2.21c-0.22-1.03-0.57-2.17-1.05-3.26c-2.51-0.94-4.95-2.05-7.37-3.18c-0.09-0.07-0.17-0.15-0.26-0.23
		c-1.18,1.67-1.22,4.03-1.09,6.01c0.12,2.4,1.56,4.49,3.56,5.68c-0.09,0.02-0.18,0.04-0.27,0.05c-0.91,0.15-1.39,1.02-1.34,1.85
		c0.03,0.52,0.27,1.03,0.76,1.32c1.13,0.54,2.37,0.14,3.57-0.26c-0.11,1.65-0.2,3.31-0.4,4.95c-0.23,0.98,0.33,2.06,1.37,2.24
		c0.9,0.17,1.93-0.45,2.05-1.39c0.21-1.7,0.36-3.39,0.45-5.09c0.16,0.3,0.34,0.59,0.53,0.86c0.79,1.11,1.87,1.94,3.02,2.44
		c2.84,1.23,6.16,0.42,6.95-3.53C449.88,717.27,449.18,715.75,448.14,714.56z M433.3,705.99c1.85,1.77,2.65,4.35,2.72,6.86
		C432.88,712.28,432.47,708.54,433.3,705.99z M445.15,719.47c-0.09-0.01-0.16-0.03-0.24-0.05c-1.74-0.28-2.56-2.15-3.49-3.46
		c1.12,0.02,2.35-0.16,3.39,0.29c0.51,0.32,1.03,0.88,1.28,1.49c0.13,0.31,0.19,0.63,0.15,0.94
		C446.01,719.09,445.65,719.47,445.15,719.47z"/>
	<path class="st8" d="M483.24,724.17c-5.7,3.85-10.42,9.14-13.8,15.12c-0.94,1.68-1.84,3.39-2.73,5.1
		c-0.44,0.85-0.03,1.93,0.81,2.34c0.85,0.42,1.9,0.04,2.34-0.81c0.89-1.71,1.78-3.41,2.72-5.08c3.19-5.55,7.62-10.49,12.99-14
		c1-0.7,2.71-0.62,2.76-2.22C488.15,721.63,484.72,722.99,483.24,724.17z"/>
	<path class="st8" d="M402.5,730.26c0.52,1.14,1.83,1.6,2.73,2.39c5.36,4.29,9.36,10.41,11.34,16.97c0.27,0.91,1.38,1.36,2.24,1.05
		c0.9-0.31,1.36-1.35,1.05-2.24c-0.7-2.5-1.72-4.91-3.04-7.15c-2.96-5.15-6.93-10.26-12.1-13.2c-0.16-0.09-0.32-0.2-0.48-0.29
		c-1-0.04-1.75,0.73-1.84,1.65C402.39,729.71,402.41,729.99,402.5,730.26z"/>
	<path class="st9" d="M313.15,596.01c-0.02-0.01-0.03-0.03-0.04-0.05C313.12,595.97,313.13,595.99,313.15,596.01z"/>
	<path class="st9" d="M388.03,588.3c-0.55,0.03-1.1-0.04-1.56-0.34c-0.25-0.15-0.47-0.31-0.67-0.47c-0.49,0.67-0.96,1.36-1.41,2.07
		v5c1.06,0.44,2.09,0.99,3.06,1.65C387.63,593.56,387.82,590.93,388.03,588.3z"/>
	<path class="st9" d="M316.09,597.51c-0.44-0.19-0.88-0.38-1.31-0.6C315.21,597.13,315.65,597.32,316.09,597.51z"/>
	<path class="st9" d="M313.41,515.67c-1.78,4.44-3.24,8.99-4.59,13.57c-0.59,2.4-1.18,4.8-1.75,7.2c-0.73,3.12-1.46,6.25-2.14,9.39
		c0,0.02-0.01,0.04-0.01,0.05c0,0.03-0.01,0.06-0.02,0.09c0,0,0,0,0,0.01s0,0.01,0,0.02c0,0.01,0,0.02-0.01,0.03c0,0,0,0.01,0,0.01
		c0,0,0,0.01,0,0.01s0,0.01,0,0.01c0,0,0,0,0,0.01c0,0,0,0.01,0,0.02v0v0c0,0.01,0,0.02-0.01,0.03c0,0,0,0.01,0,0.01c0,0,0,0,0,0.01
		s0,0.01,0,0.01c0,0,0,0,0,0s0,0.01,0,0.01s0,0.01,0,0.01c0,0.01,0,0.02,0,0.03c0,0.01,0,0.02-0.01,0.02
		c-0.02,0.09-0.04,0.17-0.06,0.26c-0.62,2.91-1.24,5.83-1.83,8.76c-0.26,1.59-0.51,3.18-0.77,4.77c-0.04,0.26-0.08,0.51-0.12,0.77
		c-0.18,1.21-0.34,2.42-0.51,3.64c0,0,0,0,0,0.01s0,0.01,0,0.01c0,0,0,0.01,0,0.02c0,0,0,0,0,0.01c0,0.02,0,0.03-0.01,0.04
		c0,0.01,0,0.02,0,0.03c0,0.01,0,0.02,0,0.03v0c0,0.01,0,0.02,0,0.02c-0.01,0.04-0.01,0.07-0.02,0.11c0,0.03-0.01,0.05-0.01,0.08
		c-0.24,1.68-0.51,3.35-0.7,5.03c-0.25,2.2-0.5,4.41-0.75,6.62c-0.12,1.1-0.27,2.2-0.37,3.31c-0.27,3.1-0.61,6.2-0.8,9.31
		c-0.16,2.57-0.34,5.14-0.47,7.71c0.05-0.02,0.09-0.04,0.14-0.06c4.6-1.53,9.38-2.35,14.21-2.68l0,0c0.06-0.15,0.14-0.3,0.25-0.43
		c1.17-2.85,8.14-7.09,1.52-19.32c-0.46-0.76-1.04-1.54-1.7-2.12c-0.33-0.27-0.62-0.54-0.77-0.96c-0.25-0.76,0-1.55,0.58-2.08
		c1.74-1.32,3.89-2.18,5.97-2.81c2.25-0.34,4.15,1.5,5.63,2.94c3.28,4.34,7.43,8.3,8.77,13.74c0.78,1.69,2.14,7.29,0.93,9.74
		c0.27,0.73-0.01,1.43-0.57,2.07c9.07,0.92,18.36,3.48,25.19,9.36c0.3-0.56,0.62-1.1,0.98-1.61c2.86-3.85,6.61-6.56,10.62-8.04v-94
		h-50.42C317.58,505.54,315.45,510.58,313.41,515.67z"/>
	<path class="st9" d="M313.44,596.23c0.11,0.06,0.23,0.12,0.36,0.16c0.33,0.18,0.65,0.36,0.99,0.52c-0.33-0.17-0.66-0.34-0.99-0.52
		C313.67,596.35,313.55,596.29,313.44,596.23z"/>
	<path class="st9" d="M312.62,594.72c0-0.15,0.02-0.29,0.05-0.43C312.65,594.43,312.62,594.57,312.62,594.72z"/>
	<path class="st9" d="M484.68,656.84c-2.27-13.69-5.06-27.29-7.11-41.02c-0.46-3.15-0.89-6.31-1.29-9.48
		c0.25-2.73,0.47-5.46,0.59-8.2c-0.05-5.8,0.56-11.54,1.14-17.3c0.45-8.63,2.28-17.1,3.53-25.64c1.9-10.77,3.45-21.72,5.3-32.62
		c1.77-14.3,4.11-28.51,5.17-42.88c-0.02-0.89-0.04-1.77-0.06-2.66c-0.09-3.43-0.21-6.86-0.32-10.29
		c-0.4-9.42-0.82-18.84-1.27-28.25c-0.03-0.63-0.06-1.27-0.09-1.9c-1.27,0.7-3.3,0.91-4.41,1.37c-0.05,0.02-0.11,0.04-0.16,0.06
		c-2.17,0.63-4.36,1.19-6.57,1.72c-3.09,0.74-6.21,1.39-9.35,1.9c-8.95,1.71-18.05,2.34-27.06,3.67
		c-15.5,1.94-31.07,3.93-46.71,3.98c-2.18-0.16-4.48,0.18-6.59-0.4c-0.41-0.19-0.66-0.54-0.8-0.94c-1.58-0.02-3.17-0.03-4.75-0.06
		c-0.11,0.44-0.21,0.87-0.32,1.31c0.15,0.22,0.27,0.47,0.31,0.75c0.13,0.92-0.53,1.88-1.48,1.98c-0.75,0-1.49,0.02-2.23,0.03v27.64
		h23.36v20.88h-12.96v0.49c-1.05-0.01-2.09-0.02-3.14-0.01c-1,0.01-2.01,0.02-3.01,0.04v81.88c0.04-0.17,0.08-0.33,0.14-0.5
		c0.55-2.22,2.41-5.44,4.79-7.84c0.52-4.66,1.12-9.31,1.85-13.95c2.13-13.64,4.93-27.2,8.04-40.64c1.66-6.67,3.91-13.17,6.26-19.62
		c3.16-9,6.06-18.09,10.22-26.7c-3.09,16.6-3.59,33.49-4.34,50.32c-1.76,27.54-0.97,55.14,0.83,82.66
		c0.98,13.57,3.12,27.02,4.82,40.51c2.68,16.59,4.77,33.42,9.84,49.5c0.94,2.46,1.64,5.36,3.75,7.08c0.09,0.07,0.17,0.16,0.26,0.23
		c2.42,1.13,4.86,2.24,7.37,3.18c0.94,0.35,1.9,0.67,2.86,0.96c0.62,0.19,1.24,0.36,1.86,0.51c0.17,0.04,0.33,0.09,0.5,0.13
		c2.7,0.76,5.43,1.27,8.18,1.58c5.93,0.67,11.95,0.41,17.91-0.27c4.09-0.25,8.18-0.75,12.12-1.87c1.01-0.26,1.87-0.64,2.6-1.12
		c5.9-3.85,3.23-14.11,3.02-20.38C486.54,676.71,486.32,666.69,484.68,656.84z"/>
	<path class="st7" d="M484.13,710.93c0.76,0.88,1.26,1.94,1.74,2.99c2.66,6.24,4.24,12.94,4.52,19.72c0.06,2.74-0.05,5.46-0.29,8.19
		c-0.11,0.54-0.05,1.11,0.2,1.57c0.24,0.44,0.64,0.77,1.21,0.86c0.9,0.14,1.91-0.5,2-1.45c0.19-1.96,0.35-3.93,0.38-5.9
		c0.22-8.56-1.59-17.13-5.08-24.94c-0.75-1.44-1.86-4.32-3.8-3.68c-0.15,0.05-0.3,0.11-0.46,0.21
		C483.81,709.02,483.53,710.19,484.13,710.93z"/>
	<path class="st10" d="M324,258.06c0.04-0.02,0.07-0.04,0.11-0.06"/>
	<path class="st3" d="M301.53,358.53c-0.55-1.41-1.18-2.78-2.07-4.05c-0.01,0.75,0.11,1.48,0.27,2.21
		C300.37,357.27,300.97,357.88,301.53,358.53z"/>
	<path class="st2" d="M453.72,259.34C453.72,259.34,453.72,259.34,453.72,259.34c0.03,0,0.07-0.01,0.1-0.01
		C453.79,259.33,453.76,259.33,453.72,259.34z"/>
	<path class="st2" d="M455.91,259.13c-0.06,0-0.13,0.01-0.19,0.01C455.79,259.14,455.85,259.14,455.91,259.13c0.03,0,0.05,0,0.08,0
		C455.96,259.13,455.94,259.13,455.91,259.13z"/>
	<path class="st2" d="M456.01,259.13C456.01,259.13,456.01,259.13,456.01,259.13C456.01,259.13,456,259.13,456.01,259.13
		c-0.01,0-0.01,0-0.02,0C456,259.13,456,259.13,456.01,259.13z"/>
	<path class="st2" d="M456,259.13c0.01,0,0.01,0,0.02,0c-0.1,0-0.2,0.01-0.29,0.01c0.06,0,0.13,0,0.19-0.01
		C455.94,259.13,455.96,259.13,456,259.13C455.99,259.13,456,259.13,456,259.13z"/>
	<path class="st2" d="M398.86,408.27c0.02-0.37,0.04-0.75,0.06-1.12c-0.24,0.14-0.47,0.28-0.71,0.43
		C398.46,407.79,398.67,408.02,398.86,408.27z"/>
	<path class="st11" d="M503,339.24c-1.67-14.4-3.31-29.06-8.54-42.7c-4.19-9.76-9.56-19.37-17.82-26.22
		c-0.2-0.23-0.39-0.47-0.59-0.69c-1.84-1.98-3.72-3.9-5.68-5.75c-1.82-1.64-3.66-3.25-5.59-4.74c-2.6-1.96-5.4-3.59-8.29-5.1
		c-1.44-0.69-2.89-1.34-4.36-1.95c-2.65-1-5.34-1.89-8.04-2.77c-4.57-1.43-9.16-2.79-13.77-4.1c-4.92-1.39-9.86-2.73-14.8-4.07
		c0.02,0,0.04,0.01,0.06,0.01c-3.88-1.03-7.74-2.12-11.6-3.23c-0.78-0.13-1.57-0.26-2.35-0.38c-0.8-0.05-1.59-0.1-2.38-0.15
		c-0.71-0.05-1.42-0.09-2.13-0.14c0.16,0.07,0.32,0.14,0.49,0.2c-0.01,8.22-3.32,16.32-8.5,22.64
		c-4.47,6.13-11.63,10.37-19.18,10.37c-1.44,0-2.9-0.15-4.35-0.48c-6.17-1.06-12.3-2.94-17-7.26c-1.26-1-2.56-1.94-3.9-2.84
		c-0.56-0.36-1.16-0.82-1.38-1.45c0.04-0.13,0.07-0.25,0.11-0.38c0.31-1.12,0.62-2.25,0.88-3.39c0.06-0.11,0.13-0.22,0.19-0.32
		c0.62-1.35,1.01-2.77,1.23-4.22c-0.22,0.06-0.43,0.12-0.65,0.18c-2.39,0.59-4.77,1.2-7.12,1.91c-4.75,1.41-9.29,3.39-13.66,5.71
		c-0.02,0.01-0.04,0.02-0.05,0.03c-0.04,0.02-0.07,0.04-0.11,0.06c0,0,0,0-0.01,0c-0.03,0.02-0.07,0.04-0.11,0.07
		c-0.04,0.02-0.07,0.04-0.11,0.06c0,0,0,0-0.01,0s0,0-0.01,0c-0.01,0-0.01,0.01-0.02,0.01c-0.01,0-0.02,0.01-0.02,0.01
		c-0.01,0-0.02,0.01-0.03,0.01c-0.4,0.24-0.81,0.47-1.21,0.71c-0.09,0.05-0.18,0.11-0.27,0.16c-0.04,0.02-0.07,0.04-0.1,0.06
		c-0.04,0.03-0.09,0.06-0.13,0.08c-0.01,0-0.01,0.01-0.02,0.01h0c-0.36,0.23-0.72,0.46-1.08,0.68c-0.1,0.07-0.2,0.13-0.3,0.2l0,0
		c-0.01,0-0.02,0.01-0.02,0.02c-0.02,0.01-0.03,0.02-0.05,0.04c-0.45,0.3-0.9,0.6-1.34,0.91c-0.06,0.04-0.13,0.09-0.19,0.14
		c-0.51,0.37-1.02,0.73-1.53,1.11c0,0,0,0-0.01,0.01c-0.05,0.04-0.09,0.07-0.14,0.11c-0.05,0.04-0.09,0.07-0.14,0.11c0,0,0,0,0,0
		c0,0,0,0-0.01,0.01c-0.46,0.35-0.93,0.71-1.38,1.06c-0.15,0.12-0.29,0.24-0.44,0.36c-0.04,0.03-0.07,0.05-0.1,0.07
		c-0.02,0.02-0.04,0.03-0.05,0.04c0,0,0,0-0.01,0.01c-0.01,0.01-0.02,0.02-0.02,0.02c0.01-0.01,0.02-0.02,0.02-0.02
		c-0.01,0.01-0.02,0.01-0.02,0.02v0c0,0,0,0,0,0c0,0,0,0,0,0c-0.32,0.26-0.64,0.52-0.96,0.79c-0.34,0.29-0.67,0.57-1,0.85
		c-0.04,0.04-0.08,0.07-0.12,0.1c-0.2,0.17-0.39,0.34-0.59,0.5c-0.55,0.49-1.1,0.99-1.65,1.48c-3.09,2.92-6.09,5.93-8.89,9.13
		c0-0.05-0.02-0.03-0.04,0.04c-0.47,0.54-0.94,1.06-1.4,1.61c-3.27,3.92-6.33,7.99-9.19,12.21c-0.62,0.91-1.22,1.83-1.82,2.75
		c-0.99,2.27-1.99,4.54-2.87,6.86c-0.13,0.35-0.26,0.7-0.39,1.05c-0.87,2.29-1.73,4.57-2.49,6.89c-1.78,5.41-3.38,10.86-4.77,16.38
		c-1.43,5.65-2.77,11.32-4.01,17.01c-0.27,1.22-0.51,2.46-0.75,3.69c3.74-1.3,8.04-2.52,9.68-1.09c0.96,0.85,0.78,2.49-0.36,3.11
		c-1.35,0.51-2.65,1.09-3.92,1.69c4.6,0.45,9.17,1.69,13.44,3.36c1,0.4,1.94,0.88,2.83,1.41c0.01-0.08,0-0.16,0.01-0.25
		c0.12-1.39,1.07-2.38,2.35-2.85c1.93-0.66,3.68,0.93,4.56,2.51c1.52,2.54,2.36,5.39,3.43,8.13c0.54,1.13,0.98,2.6-0.05,3.56
		c1.18,0.34,2.54,1.06,4.15,2.28c2.19,1.72,3.66,4.1,4.93,6.53c1.16,1.95,2.22,3.91,3.31,5.84c-0.01-0.14-0.02-0.29-0.03-0.44
		c0-2.3-0.75-4.96,0.57-7.01c4.25-4.47,8.63,2.26,11.84,4.78c0.39-3.61,0.93-7.24,2.27-10.63c1.96-4.43,6.09-13.2,12.06-9.43
		c2.87,2.66,2.7,7.03,4.21,10.43c4.43-5.3,10.01-9.51,16.32-12.32c4.96-2.18,10.23-4.32,15.67-4.75c3.19-0.13,5.07,2.14,4.77,5.25
		c-0.31,4.53-3.64,8.17-6.38,11.54c-2.54,3.16-5.81,5.7-7.98,9.14c7.88-0.02,17.45,3.88,11.29,12.99c-1.32,1.82-3.03,3.34-4.66,4.86
		c-0.26,0.25-0.51,0.5-0.76,0.76h2.27v26.69c0.63,0.39,1.28,0.77,1.95,1.11c0.12,0.06,0.23,0.13,0.35,0.19
		c0.98,0.55,1.08,1.57,0.68,2.33c0.25,0.24,0.49,0.5,0.74,0.76c0.19,0.2,0.39,0.39,0.58,0.6c0.12,0.49,0.24,0.98,0.35,1.47
		c0.18,1.02,0.31,2.05,0.41,3.08c0.17,3.04,0.13,6.08-0.02,9.11c-0.12,1.57-0.32,3.11-0.6,4.66c-0.21,1.03-0.45,2.06-0.7,3.08
		c1.58,0.03,3.16,0.04,4.75,0.06c0.14,0.4,0.39,0.75,0.8,0.94c2.11,0.58,4.41,0.24,6.59,0.4c15.65-0.05,31.21-2.04,46.71-3.98
		c9-1.33,18.11-1.96,27.06-3.67c3.14-0.51,6.26-1.16,9.35-1.9c2.2-0.53,4.39-1.09,6.57-1.72c0.05-0.02,0.11-0.04,0.16-0.06
		c1.12-0.46,3.15-0.66,4.41-1.37c0.8-0.44,1.29-1.09,1.05-2.12c0,0,0,0,0,0c0.27-0.89,0.31-2.04,0.61-2.96
		c2.04-8.07,4.09-16.35,5.64-24.56c1.82-11.04,3.87-22.07,5.23-33.18C504,362.28,503.64,350.81,503,339.24z M398.86,408.27
		c-0.19-0.25-0.4-0.48-0.64-0.69c0.24-0.14,0.47-0.28,0.71-0.43C398.9,407.53,398.88,407.9,398.86,408.27z M453.72,259.34
		C453.72,259.34,453.72,259.34,453.72,259.34c0.03,0,0.07-0.01,0.1-0.01C453.79,259.33,453.76,259.33,453.72,259.34z M456.01,259.13
		c-0.01,0-0.01,0-0.02,0c-0.02,0-0.05,0-0.07,0.01c-0.06,0-0.13,0-0.19,0c0.06,0,0.12-0.01,0.19-0.01c-0.06,0-0.13,0-0.19,0.01
		C455.82,259.14,455.92,259.13,456.01,259.13C456.01,259.13,456,259.13,456.01,259.13C456,259.13,456.01,259.13,456.01,259.13
		C456.01,259.13,456.01,259.13,456.01,259.13z"/>
	<path class="st12" d="M356.48,209.51c-2.82-0.56-4.74,2.03-6.9,3.35c-1.19,0.76-2.44,1.47-3.73,2.04
		c-2.59,1.03-5.48,0.72-8.18,1.22c-0.52,0.16-1.26,0.2-1.51,0.75c1.73,1.46,4.38,0.86,6.49,0.93c5.34-0.77,11.16-3.35,13.85-8.27
		C356.49,209.52,356.49,209.52,356.48,209.51C356.49,209.51,356.48,209.51,356.48,209.51z"/>
	<path class="st12" d="M344.28,254.66c-0.26,1.14-0.57,2.27-0.88,3.39c-0.04,0.13-0.07,0.25-0.11,0.38
		c0.22,0.63,0.82,1.09,1.38,1.45c1.33,0.91,2.64,1.84,3.9,2.84c4.7,4.32,10.82,6.2,17,7.26c1.46,0.33,2.91,0.48,4.35,0.48
		c7.55,0,14.71-4.25,19.18-10.37c5.18-6.32,8.49-14.43,8.5-22.64c-0.17-0.06-0.32-0.13-0.49-0.2c-0.14-0.06-0.29-0.11-0.43-0.17
		c-1.1-0.5-2.14-1.09-3.13-1.76c-1.69-0.32-3.27-1.19-4.39-2.52c-4.3-5.28-6.14-12.1-8.03-18.52c-0.2-0.54-0.39-1.19-0.65-1.8
		c2.32-5.98,4-12.18,5.26-18.48c0.4-2.03,0.76-4.07,1.09-6.11h0c0.68-0.23,1.35-0.52,1.88-0.67c3.41-1.43,6.82-3.93,7.91-7.62
		c0.92-3.31-0.15-7.25-2.98-9.32c-2.21-1.65-5.92-1.12-8.08,0.7c-0.67-0.41-1.34-0.81-1.99-1.26c-3.54-2.44-6.92-5.17-10.38-7.76
		c-6.48-4.64-13.37-8.71-20.27-12.69c-2.14-1.23-4.84-1.76-7.2-1.11c-1.26,1.18-2.54,2.32-3.86,3.43c-2.89,2.45-5.86,4.78-8.98,6.94
		c-0.07,0.04-0.14,0.09-0.2,0.14c0,0-0.01,0.01-0.02,0.01c-0.05,0.03-0.1,0.07-0.15,0.11c-2.55,1.76-5.22,3.31-8.02,4.63
		c-2.74,1.29-5.64,2.28-8.56,3.05c-2.29,0.6-4.66,0.97-7.01,1.24c-0.49,0.05-0.99,0.1-1.48,0.13c0.13,1.15,0.66,2.36,0.83,3.43
		c0.6,2.26,1.12,4.53,1.63,6.81c0.62,2.77,1.23,5.55,1.91,8.31c4.17,15.64,7.03,32.79,18.21,45.21c4,5.02,8.39,6.75,14.29,7.01
		c0.13,0.28,0.28,0.56,0.36,0.87c1.07,3.38,1.58,7.1,1.04,10.63c-0.22,1.45-0.62,2.87-1.23,4.22
		C344.41,254.44,344.34,254.55,344.28,254.66z M357.13,214.22c-4.46,4.57-11.08,7.19-17.45,6.87c-2.08-0.05-4.39-0.32-5.88-1.96
		c-1.34-1.39-1.13-3.7,0.32-4.92c2.87-2.25,6.86-1.2,10.17-2.19c4.17-1.41,6.93-5.98,11.61-5.84c1.15,0.08,2.79,0.21,3.14,1.53
		C361.2,209.71,358.48,212.53,357.13,214.22z M356.38,169.64c-1.74-0.12-5.21,1.19-5.44-1.43c0.01-1.54,1.62-1.78,2.83-1.68
		c3.38-0.19,6.75-0.41,10.13-0.49c1.79,0.22,5.62-1.04,5.85,1.6c0,0.87-0.74,1.66-1.63,1.63
		C364.21,169.2,360.3,169.42,356.38,169.64z M361.19,181.13c0,0.89-0.74,1.63-1.63,1.63c-0.89,0-1.63-0.74-1.63-1.63
		s0.74-1.63,1.63-1.63C360.45,179.5,361.19,180.25,361.19,181.13z M387.81,175.46c0.81-0.03,1.6,0.25,2.25,0.72
		c2.06,1.3,0.18,5.62-2.14,4.06c-0.47-0.36-0.71-1.01-0.62-1.59C385.59,178.09,385.99,175.45,387.81,175.46z M312.98,171.23
		c3.72-1.28,7.59-1.98,11.45-2.66c1.61-0.15,4.23-1.73,5,0.47c0.23,0.83-0.27,1.81-1.14,2.01c-2.67,0.67-5.38,1.12-8.09,1.61
		c-2.15,0.45-4.26,1.04-6.35,1.72c-0.83,0.28-1.78-0.31-2.01-1.14C311.6,172.35,312.14,171.5,312.98,171.23z M319.09,184.28
		c0.89,0,1.63,0.74,1.63,1.63s-0.74,1.63-1.63,1.63s-1.63-0.74-1.63-1.63S318.2,184.28,319.09,184.28z M333.36,180.18
		c0.04-1.45-0.35-3.77,1.67-3.85c0.85,0,1.69,0.74,1.63,1.63c-0.07,1.65-0.03,3.31-0.14,4.97c-0.21,5.6-0.45,11.24,0.03,16.84
		c1.68,0.3,3.64-2.03,4.9-0.11c1.27,2.93-4.03,3.55-5.96,3.3c-1.96-0.06-2.19-2.21-2.25-3.74
		C332.79,192.89,333.14,186.52,333.36,180.18z M374.35,220.14c0.57-1.06,1.53-2.37,2.87-1.59c0.75,0.44,1.05,1.47,0.58,2.23
		c-0.94,1.54-2.02,2.98-3.12,4.41c-2.1,2.7-4.14,5.52-6.76,7.75c-2.82,2.48-6.39,3.81-9.91,4.97c-1.84,0.33-6.35,2.75-6.94-0.11
		c-0.16-1.11,0.81-1.89,1.85-1.91C364.53,233.46,367.77,229.41,374.35,220.14z"/>
	<path class="st12" d="M308.93,165.24c0.22-0.04,0.44-0.08,0.66-0.13c-0.12-0.03-0.24-0.04-0.36-0.05
		C309.13,165.12,309.03,165.18,308.93,165.24z"/>
	<path class="st13" d="M352.93,235.89c-1.05,0.03-2.01,0.8-1.85,1.91c0.59,2.86,5.1,0.44,6.94,0.11c3.53-1.15,7.09-2.48,9.91-4.97
		c2.62-2.23,4.66-5.05,6.76-7.75c1.1-1.43,2.18-2.87,3.12-4.41c0.47-0.75,0.17-1.79-0.58-2.23c-1.34-0.78-2.3,0.53-2.87,1.59
		C367.77,229.41,364.53,233.46,352.93,235.89z"/>
	<path class="st13" d="M335.48,202.96c1.93,0.25,7.22-0.37,5.96-3.3c-1.25-1.92-3.21,0.4-4.9,0.11c-0.47-5.59-0.23-11.23-0.03-16.84
		c0.12-1.65,0.07-3.31,0.14-4.97c0.05-0.89-0.79-1.63-1.63-1.63c-2.02,0.08-1.63,2.4-1.67,3.85c-0.22,6.34-0.57,12.71-0.13,19.04
		C333.29,200.76,333.53,202.9,335.48,202.96z"/>
	<path class="st13" d="M387.31,178.64c-0.1,0.58,0.15,1.23,0.62,1.59c2.32,1.57,4.2-2.75,2.14-4.06c-0.66-0.47-1.44-0.75-2.25-0.72
		C385.99,175.45,385.59,178.09,387.31,178.64z"/>
	<path class="st8" d="M357.93,181.13c0,0.89,0.74,1.63,1.63,1.63c0.89,0,1.63-0.74,1.63-1.63s-0.74-1.63-1.63-1.63
		C358.67,179.5,357.93,180.25,357.93,181.13z"/>
	<circle class="st8" cx="319.09" cy="185.91" r="1.63"/>
	<path class="st8" d="M355.89,206.17c-4.68-0.14-7.44,4.44-11.61,5.84c-3.31,1-7.3-0.06-10.17,2.19c-1.45,1.22-1.66,3.53-0.32,4.92
		c1.49,1.64,3.8,1.91,5.88,1.96c6.38,0.32,12.99-2.3,17.45-6.87c1.34-1.69,4.07-4.51,1.89-6.52
		C358.68,206.39,357.04,206.25,355.89,206.17z M342.64,217.8c-2.11-0.07-4.76,0.53-6.49-0.93c0.25-0.54,1-0.58,1.51-0.75
		c2.71-0.49,5.59-0.18,8.18-1.22c1.3-0.57,2.54-1.28,3.73-2.04c2.16-1.32,4.08-3.91,6.9-3.35c0,0,0,0,0,0
		c0,0.01,0.01,0.02,0.01,0.02C353.8,214.45,347.98,217.02,342.64,217.8z"/>
	<path class="st7" d="M368.12,169.28c0.89,0.03,1.63-0.76,1.63-1.63c-0.23-2.64-4.06-1.38-5.85-1.6c-3.38,0.07-6.75,0.29-10.13,0.49
		c-1.21-0.11-2.81,0.14-2.83,1.68c0.23,2.62,3.7,1.31,5.44,1.43C360.3,169.42,364.21,169.2,368.12,169.28z"/>
	<path class="st7" d="M313.85,174.37c2.09-0.68,4.2-1.27,6.35-1.72c2.71-0.49,5.42-0.94,8.09-1.61c0.87-0.2,1.37-1.18,1.14-2.01
		c-0.77-2.2-3.39-0.62-5-0.47c-3.86,0.68-7.73,1.38-11.45,2.66c-0.84,0.27-1.38,1.12-1.14,2
		C312.07,174.06,313.02,174.65,313.85,174.37z"/>
	<path class="st14" d="M272.55,352.92c-0.14,3.6,0.69,7.17,0.54,10.79c-0.13,1.95,0.67,5.21-1.54,6.18
		c-2.28,0.78-3.04-2.67-3.38-4.28c-0.68-3-0.92-6.08-1.49-9.1c-2.99,0.45-12.26,6.16-12.49,0.41c0-0.01,0-0.01,0.01-0.02
		c-7.08,5.64-12.03,13.87-13.5,22.92c-0.88,3.82-1.41,10.09,0,14.99h63.51c-1.28-3.84-2.73-7.63-3.53-11.62
		c-0.77-3.95-1.33-10.83,0.16-14.97c-0.25-0.21-0.45-0.47-0.55-0.79c-0.55-0.1-1.05-0.44-1.26-0.97c-0.73-1.7-1.16-3.49-1.63-5.27
		c-0.67-2.38-1.59-4.78-1.4-7.29c-0.9-0.52-1.83-1.01-2.83-1.41c-4.27-1.67-8.84-2.91-13.44-3.36
		C277.29,350.31,274.94,351.6,272.55,352.92z"/>
	<path class="st14" d="M299.73,356.69c0.3,1.31,0.79,2.59,1.1,3.89c0.35,1.28,0.65,2.57,1.12,3.81c0.46-0.4,0.88-0.84,1.28-1.3
		c-0.62-1.53-1.12-3.07-1.7-4.56C300.97,357.88,300.37,357.27,299.73,356.69z"/>
	<path class="st15" d="M302.47,368.57c-0.57,0.2-1.19,0.04-1.64-0.33c-1.48,4.14-0.93,11.03-0.16,14.97
		c0.8,3.98,2.25,7.77,3.53,11.62h6.49c-1.29-3.01-2.47-6.08-3.82-9.07c-0.96-2.54-2.51-4.98-2.91-7.68c0.03-0.96,0.98-1.68,1.89-1.6
		c1.48,0.11,1.57,1.69,2.04,2.76c2.29,5.16,4.31,10.45,6.64,15.59h4.77c-2.65-4.34-5.34-8.65-7.95-13
		c-0.94-2.08,2.18-3.54,3.18-1.48c2.97,4.82,5.93,9.64,8.89,14.48h1.08c-0.7-1.07-1.37-2.17-1.99-3.3
		c-0.67-1.23-1.29-2.49-1.83-3.78s-0.99-2.61-1.33-3.96c-0.34-1.35-0.57-2.72-0.66-4.11c0,0,0,0,0,0c-1.09-1.93-2.16-3.89-3.31-5.84
		c-1.27-2.43-2.74-4.81-4.93-6.53c-1.6-1.22-2.97-1.94-4.15-2.28c-0.04,0.04-0.07,0.08-0.12,0.12
		C304.85,366.18,304,367.83,302.47,368.57z"/>
	<path class="st5" d="M386.37,355.54c0.3-3.11-1.58-5.39-4.77-5.25c-5.45,0.43-10.71,2.57-15.67,4.75
		c-6.31,2.81-11.89,7.02-16.32,12.32c-1.52-3.4-1.35-7.77-4.21-10.43c-5.97-3.77-10.09,5-12.06,9.43
		c-1.34,3.39-1.88,7.03-2.27,10.63c-3.2-2.52-7.59-9.25-11.84-4.78c-1.32,2.05-0.57,4.71-0.57,7.01c0.01,0.15,0.02,0.3,0.03,0.44
		c0,0,0,0,0,0c0.09,1.39,0.32,2.77,0.66,4.11c0.34,1.35,0.79,2.67,1.33,3.96s1.15,2.55,1.83,3.78c0.62,1.13,1.3,2.23,1.99,3.3h1.67
		h6.78c-0.22-0.41-0.45-0.83-0.67-1.26c-1.57-3.05-2.79-6.18-0.9-7.92c0.82-0.49,1.9-0.28,2.42,0.55c0.4,0.56,0.22,1.19,0.14,1.78
		c0.47,2.48,1.79,4.64,2.98,6.85h3.75c0.12-0.24,0.25-0.47,0.37-0.7c-0.05-0.12-0.09-0.24-0.11-0.38
		c-1.56-6.04-3.09-12.31-2.65-18.58c0.53-2.22,3.89-1.47,3.41,0.77c-0.09,4.69,0.74,9.31,1.84,13.86c0.05-0.08,0.1-0.16,0.14-0.24
		c1.5-2.4,3.11-4.72,4.79-6.99c-0.15-0.24-0.25-0.52-0.24-0.82c0.19-3.6-0.29-7.37,0.52-10.87c0.87-1.68,3.5-0.86,3.33,1.01
		c-0.32,2.11-0.32,4.27-0.31,6.43c3.09-3.81,6.38-7.46,9.8-10.97c1.33-1.39,2.71-2.72,4.1-4.05c1.12-1.02,2.8-2.88,4.22-1.28
		c0.61,0.74,0.5,1.86-0.23,2.47c-5.58,5.01-10.76,10.49-15.44,16.37c3.78-0.9,7.6-1.67,11.44-2.24c2.27-0.32,2.88,3,0.62,3.45
		c-2.28,0.27-4.53,0.76-6.77,1.24c-2.22,0.47-4.44,0.95-6.64,1.46c-0.59,0.17-1.31,0.42-1.98,0.49c-1.38,1.9-2.72,3.82-3.99,5.79
		c-0.37,0.6-0.74,1.21-1.1,1.82c0.75-0.22,1.54-0.36,2.12-0.53c4.32-1.06,8.63-2.15,12.92-3.32c2.21-0.63,3.24,2.6,1.06,3.34
		c-3.21,0.87-6.43,1.7-9.65,2.51h25.65c0.25-0.26,0.5-0.51,0.76-0.76c1.63-1.52,3.34-3.04,4.66-4.86
		c6.16-9.11-3.41-13.01-11.29-12.99c2.18-3.43,5.45-5.98,7.98-9.14C382.73,363.71,386.06,360.07,386.37,355.54z"/>
	<g>
		<path class="st16" d="M369.64,364.47c0.73-0.61,0.84-1.73,0.23-2.47c-1.42-1.6-3.1,0.26-4.22,1.28c-1.39,1.33-2.77,2.67-4.1,4.05
			c-3.41,3.51-6.71,7.16-9.8,10.97c0-2.16-0.01-4.32,0.31-6.43c0.17-1.87-2.46-2.69-3.33-1.01c-0.8,3.5-0.33,7.28-0.52,10.87
			c0,0.3,0.09,0.57,0.24,0.82c-1.68,2.27-3.29,4.59-4.79,6.99c-0.05,0.08-0.1,0.16-0.14,0.24c-1.1-4.54-1.92-9.16-1.84-13.86
			c0.48-2.24-2.89-2.99-3.41-0.77c-0.44,6.27,1.09,12.54,2.65,18.58c0.03,0.14,0.07,0.27,0.11,0.38c-0.12,0.23-0.25,0.47-0.37,0.7
			h0.93h1.93h8.69c3.22-0.81,6.44-1.64,9.65-2.51c2.18-0.73,1.15-3.96-1.06-3.34c-4.3,1.17-8.6,2.27-12.92,3.32
			c-0.58,0.17-1.37,0.32-2.12,0.53c0.36-0.61,0.73-1.21,1.1-1.82c1.27-1.97,2.61-3.89,3.99-5.79c0.67-0.07,1.39-0.32,1.98-0.49
			c2.21-0.52,4.42-0.99,6.64-1.46c2.24-0.48,4.49-0.97,6.77-1.24c2.26-0.44,1.65-3.77-0.62-3.45c-3.84,0.58-7.66,1.34-11.44,2.24
			C358.88,374.96,364.07,369.47,369.64,364.47z"/>
		<path class="st16" d="M333.79,386.19c-0.52-0.82-1.6-1.04-2.42-0.55c-1.88,1.74-0.67,4.88,0.9,7.92c0.22,0.42,0.44,0.84,0.67,1.26
			h3.97c-1.19-2.21-2.51-4.37-2.98-6.85C334.01,387.38,334.19,386.75,333.79,386.19z"/>
	</g>
	<path class="st8" d="M297.39,361.21c0.47,1.78,0.9,3.57,1.63,5.27c0.21,0.53,0.71,0.87,1.26,0.97c0.1,0.31,0.3,0.58,0.55,0.79
		c0.45,0.37,1.08,0.53,1.64,0.33c1.53-0.74,2.38-2.38,3.7-3.42c0.05-0.04,0.08-0.08,0.12-0.12c1.03-0.96,0.59-2.43,0.05-3.56
		c-1.06-2.74-1.9-5.6-3.43-8.13c-0.88-1.58-2.63-3.17-4.56-2.51c-1.28,0.47-2.23,1.46-2.35,2.85c-0.01,0.08-0.01,0.16-0.01,0.25
		C295.8,356.43,296.71,358.83,297.39,361.21z M301.53,358.53c0.58,1.49,1.08,3.03,1.7,4.56c-0.39,0.46-0.82,0.9-1.28,1.3
		c-0.47-1.24-0.77-2.53-1.12-3.81c-0.32-1.3-0.8-2.58-1.1-3.89c-0.17-0.72-0.28-1.45-0.27-2.21
		C300.35,355.75,300.98,357.12,301.53,358.53z"/>
	<path class="st8" d="M307.89,379.23c-0.46-1.07-0.55-2.65-2.04-2.76c-0.91-0.08-1.87,0.64-1.89,1.6c0.4,2.7,1.95,5.14,2.91,7.68
		c1.35,2.99,2.53,6.06,3.82,9.07h3.85C312.21,389.68,310.18,384.39,307.89,379.23z"/>
	<path class="st8" d="M314.53,380.34c-0.99-2.06-4.11-0.6-3.18,1.48c2.61,4.35,5.3,8.66,7.95,13h4.11
		C320.46,389.99,317.5,385.16,314.53,380.34z"/>
	<path class="st5" d="M263.46,335.58c-1.91,0.97-0.56,9.49,0.1,14.01c0.64-0.28,1.29-0.5,1.97-0.64c-0.05-1.47-0.23-2.96-0.27-4.43
		c0.18-2,3.1-2.14,3.46-0.16c0.12,0.95,0.19,1.93,0.39,2.88c0.43-0.12,0.95-0.29,1.55-0.5c-0.01-0.05-0.03-0.09-0.05-0.14
		c-0.82-1.92-1.62-3.84-2.44-5.76c-0.2-0.46-0.39-0.92-0.59-1.38C266.78,337.85,265.91,334.33,263.46,335.58z"/>
	<path class="st5" d="M268.73,344.36c-0.37-1.97-3.28-1.84-3.46,0.16c0.04,1.46,0.22,2.95,0.27,4.43c-0.68,0.14-1.33,0.37-1.97,0.64
		c-1.84,0.8-3.52,2.06-5.18,3.16c-1.47,1.21-3.69,2.18-4.19,4.15c0,0.01,0,0.01-0.01,0.02c0.23,5.74,9.51,0.04,12.49-0.41
		c0.57,3.02,0.81,6.09,1.49,9.1c0.33,1.6,1.09,5.06,3.38,4.28c2.22-0.96,1.42-4.23,1.54-6.18c0.15-3.62-0.68-7.19-0.54-10.79
		c2.4-1.32,4.74-2.61,7.17-3.76c1.28-0.61,2.57-1.19,3.92-1.69c1.13-0.62,1.32-2.26,0.36-3.11c-1.64-1.44-5.94-0.21-9.68,1.09
		c-1.34,0.46-2.6,0.94-3.65,1.3c-0.6,0.21-1.13,0.38-1.55,0.5C268.91,346.29,268.85,345.31,268.73,344.36z"/>
	<path class="st17" d="M380.14,451.98c-7.44,0.16-14.87,1.09-22.29,1.8c-7.26,0.98-14.44,2.81-21.82,2.68
		c-5.42-0.1-11.3-0.8-15.63-4.35c-2.91-2.28-5.5-5.48-5.71-9.31c-0.09-4.67,1.73-9.53,5.13-12.78c3.38-3.51,7.42-6.42,12.39-6.96
		c1.85-0.37,3.72-0.7,5.6-0.91c-1.08-4.56-3.71-10.59-3.75-15.54c-1.57,0.01-3.14,0.02-4.71,0.03c-7.54,0.05-15.07,0.11-22.61,0.16
		c-7.64,0.05-15.28,0.11-22.92,0.16c-7.59,0.05-15.19,0.11-22.78,0.16c-5.57,0.04-11.14,0.08-16.71,0.12
		c-0.95,0-1.72-0.89-1.69-1.81c0.04-0.98,0.86-1.68,1.81-1.69c7.4-0.05,14.8-0.11,22.2-0.16c7.75-0.05,15.5-0.11,23.25-0.16
		c7.41-0.05,14.83-0.11,22.24-0.16c7.49-0.05,14.98-0.11,22.47-0.16c0.78-2.15,2.48-3.86,5.67-4.79c5.26-1.58,10.5,0.49,15.11,2.96
		c0.97,0.48,1.88,1.06,2.77,1.66c4.97-0.03,9.93-0.07,14.9-0.1c0.95,0,1.72,0.89,1.69,1.81c-0.04,0.98-0.86,1.68-1.81,1.69
		c-3.49,0.03-6.98,0.05-10.47,0.07c2.34,2.15,4.54,4.48,6.94,6.54c3.6,2.91,6.89,6.14,10.76,8.56v-26.69h-2.27h-25.65h-8.69h-1.93
		h-0.93h-3.75h-3.97h-6.78h-1.67h0h-1.08h-4.11h-4.77h-3.85h-6.49h-63.51h-2.26v84.79h141.71V451.98z"/>
	<path class="st18" d="M362.45,406.4c3.49-0.02,6.98-0.05,10.47-0.07c0.95-0.01,1.77-0.71,1.81-1.69c0.03-0.92-0.73-1.82-1.69-1.81
		c-4.97,0.04-9.94,0.07-14.9,0.1C359.67,403.97,361.08,405.15,362.45,406.4z"/>
	<path class="st18" d="M334.6,403.1c-7.49,0.05-14.98,0.11-22.47,0.16c-7.41,0.05-14.83,0.11-22.24,0.16
		c-7.75,0.06-15.5,0.11-23.25,0.16c-7.4,0.05-14.8,0.11-22.2,0.16c-0.95,0-1.77,0.7-1.81,1.69c-0.04,0.92,0.73,1.82,1.69,1.81
		c5.57-0.04,11.14-0.08,16.71-0.12c7.59-0.05,15.19-0.11,22.78-0.16c7.64-0.05,15.28-0.11,22.92-0.16
		c7.54-0.05,15.07-0.11,22.61-0.16c1.57-0.01,3.14-0.02,4.71-0.03C334.05,405.35,334.21,404.18,334.6,403.1z"/>
	<path class="st12" d="M385.17,440.16c0.15-3.03,0.19-6.08,0.02-9.11c-0.09-1.04-0.23-2.06-0.41-3.08
		c-0.11-0.49-0.22-0.98-0.35-1.47c-0.18-0.21-0.39-0.4-0.58-0.6c-0.24-0.25-0.48-0.51-0.74-0.76c-0.41,0.77-1.33,1.27-2.36,0.74
		c-9.52-5.05-16.43-13.89-24.84-20.26c-4.58-2.6-9.57-5.52-14.92-3.87c-5.12,1.13-3.32,7.46-2.28,11.07
		c0.63,2.27,1.3,4.52,2.05,6.76c0.37,1.61,1.71,4.48-0.31,5.28c-0.25,0.33-0.61,0.59-1.08,0.63c-3.66,0.39-7.45,0.96-10.93,2.17
		c-4.05,2.34-8.04,5.73-9.5,10.32c-0.84,2.59-1.27,5.59,0.39,7.95c8.35,11.62,26.2,5.81,38.02,4.38c5.21-0.47,10.38-1.23,15.62-1.38
		c2.96-0.44,5.92-0.56,8.91-0.46c0.67-0.07,1.3,0.22,1.67,0.73c0.11-0.44,0.22-0.87,0.32-1.31c0.25-1.02,0.49-2.05,0.7-3.08
		C384.85,443.27,385.05,441.73,385.17,440.16z"/>
	<path class="st19" d="M384.87,428.39c-0.01-0.04-0.02-0.09-0.03-0.14"/>
	<path class="st13" d="M383.86,449.96c-0.04-0.29-0.15-0.54-0.31-0.75c-0.37-0.51-1.01-0.81-1.67-0.73
		c-2.98-0.11-5.95,0.02-8.91,0.46c-5.23,0.15-10.41,0.91-15.62,1.38c-11.81,1.43-29.66,7.24-38.02-4.38
		c-1.66-2.36-1.23-5.36-0.39-7.95c1.46-4.58,5.45-7.98,9.5-10.32c3.48-1.21,7.27-1.78,10.93-2.17c0.47-0.04,0.83-0.29,1.08-0.63
		c2.02-0.8,0.68-3.67,0.31-5.28c-0.75-2.24-1.42-4.49-2.05-6.76c-1.05-3.62-2.84-9.95,2.28-11.07c5.35-1.65,10.33,1.27,14.92,3.87
		c8.41,6.38,15.33,15.22,24.84,20.26c1.04,0.52,1.96,0.02,2.36-0.74c0.4-0.76,0.3-1.77-0.68-2.33c-0.12-0.06-0.23-0.13-0.35-0.19
		c-0.67-0.35-1.32-0.72-1.95-1.11c-3.88-2.42-7.17-5.65-10.76-8.56c-2.39-2.06-4.6-4.39-6.94-6.54c-1.36-1.25-2.78-2.43-4.3-3.47
		c-0.88-0.6-1.79-1.17-2.77-1.66c-4.61-2.47-9.85-4.54-15.11-2.96c-3.19,0.93-4.89,2.64-5.67,4.79c-0.39,1.07-0.55,2.25-0.54,3.5
		c0.04,4.95,2.67,10.98,3.75,15.54c-1.88,0.21-3.75,0.53-5.6,0.91c-4.97,0.54-9.01,3.44-12.39,6.96c-3.39,3.26-5.21,8.11-5.13,12.78
		c0.21,3.83,2.8,7.03,5.71,9.31c4.33,3.55,10.21,4.24,15.63,4.35c7.38,0.14,14.56-1.7,21.82-2.68c7.42-0.71,14.84-1.64,22.29-1.8
		c0.74-0.02,1.49-0.03,2.23-0.03C383.33,451.84,383.99,450.88,383.86,449.96z"/>
	<path class="st14" d="M395.97,625.7c2.61-6.43,1.77-14.18-1.37-20.43c-1.66-4.08-4.17-7.08-7.15-9.08c-0.98-0.66-2-1.21-3.06-1.65
		v31.15H395.97z"/>
	<path class="st14" d="M359.54,602.55c-0.35,0.5-0.68,1.05-0.98,1.61c1.98,1.71,3.77,3.68,5.27,5.99c2.34,3.44,4.7,7.2,6.32,11.18
		V594.5C366.15,595.99,362.41,598.69,359.54,602.55z"/>
	<path class="st5" d="M389.3,578.99c0.77-0.78,2.03-1.07,2.84-0.17c0.61,0.68,0.61,1.87-0.13,2.47c-2.46,1.67-4.48,3.81-6.22,6.18
		c0.21,0.16,0.43,0.32,0.67,0.47c0.46,0.3,1.01,0.38,1.56,0.34c0.36-0.02,0.72-0.08,1.05-0.19c2.41-0.58,4.48-2.01,5.78-4.11
		c2.36-2.65,6.1-8.31,3.45-11.67c-2.86-2.17-6.26-0.5-8.98,2.24c-2.38,2.4-4.24,5.62-4.79,7.84c-0.06,0.17-0.09,0.33-0.14,0.5v0.67
		C385.82,581.85,387.44,580.28,389.3,578.99z"/>
	<path class="st20" d="M392.01,581.3c0.74-0.61,0.74-1.79,0.13-2.47c-0.8-0.9-2.07-0.62-2.84,0.17c-1.87,1.29-3.48,2.86-4.91,4.59
		v5.97c0.45-0.71,0.92-1.4,1.41-2.07C387.53,585.1,389.55,582.97,392.01,581.3z"/>
	<path class="st21" d="M272.72,622.29c1-4.41,3.09-8.38,5.88-11.84v0c-1.78-1.99-3.75-3.83-5.8-5.5c-0.7-0.51-1.39-1.03-2.08-1.56
		c0.07,0.39,0.01,0.83-0.26,1.31c-2.27,2.99-5.16,5.47-7.46,8.45c-0.48,0.7-1.45,0.95-2.21,0.58c-1.36-0.67-1.15-2.39-0.12-3.27
		c2.06-2.55,4.45-4.8,6.57-7.29c0.4-0.8,1.06-1.14,1.69-1.16c-0.25-0.19-0.5-0.38-0.75-0.58c-4.03-3.1-8.11-6.2-12.73-8.3
		c-0.26-0.11-0.53-0.22-0.79-0.32c1.71,2.02-1.59,3.97-2.69,5.49c-1.52,1.18-3.46,4.9-5.59,2.93c-1.53-1.78,1.26-3.33,2.17-4.43
		c1.23-1.26,2.47-2.53,3.57-3.91c0.3-0.38,0.76-0.57,1.23-0.59c-5.89-2.25-12.02-4.01-16.99-8.09c-4.96-4.34-6.75-11.56-12.59-15.08
		c-1.76-1.07-4.22-1.43-5.9,0.02c-3.53,3.5-0.35,10.46,0.06,14.82c0.2,1.88-0.06,3.76-0.21,5.64c0.94-0.99,3.12-1.19,4.25-1.87
		c1.15-0.62,2.82-1.32,3.6,0.2c0.98,2.17-1.82,2.8-3.28,3.46c-1.41,0.46-3.58,1.86-4.65,0.44c0.01,0.58,0.03,1.17,0.12,1.75
		c0.15,1.3,0.38,2.58,0.64,3.86c0.14-0.55,0.54-1.03,1.1-1.23c1.48-0.54,2.95-1.11,4.4-1.72c1.37-0.57,2.76-1.12,4.12-1.71
		c0.95-0.57,2.27-0.56,2.83,0.55c1.22,2.75-3.73,3.28-5.41,4.3c-1.78,0.43-5.36,3.11-6.74,1.27c0.41,1.79,0.9,3.56,1.4,5.32
		c1.74,5.67,5.27,10.48,8.54,15.35c0.29,0.43,0.59,0.87,0.87,1.31c0.92,1.54,1.65,3.15,2.19,4.81h40.75
		C272.44,624.56,272.52,623.42,272.72,622.29z M249.08,608.88c3.85-3.62,7.73-7.25,11.04-11.37c0.61-0.74,1.77-0.79,2.47-0.18
		c0.73,0.64,0.78,1.73,0.18,2.47c-2.08,2.57-4.35,4.98-6.74,7.27c-2.09,2.05-4.2,4.1-6.41,6.03c-0.99,1.16-2.79,1.49-3.47-0.17
		C245.59,610.96,248.07,610.17,249.08,608.88z"/>
	<path class="st3" d="M363.84,610.14c-1.5-2.31-3.29-4.28-5.27-5.99c-6.84-5.88-16.13-8.43-25.19-9.36l0,0
		c-0.98,1.13-2.8,2.06-3.85,2.55c-2.25,1.14-4.76,1.65-7.28,1.5c-2.16,0.02-4.21-0.51-6.16-1.34c-0.44-0.19-0.88-0.38-1.31-0.6
		c-0.33-0.17-0.66-0.34-0.99-0.52c-0.13-0.04-0.25-0.09-0.36-0.16c-0.11-0.06-0.21-0.14-0.29-0.22c-0.02-0.01-0.03-0.03-0.04-0.05
		c-0.32-0.33-0.48-0.78-0.48-1.24c0-0.15,0.02-0.29,0.05-0.43c0.02-0.09,0.04-0.18,0.08-0.26c-4.83,0.33-9.61,1.15-14.21,2.68
		c-0.05,0.02-0.09,0.04-0.14,0.06c-4.18,1.56-8.33,3.73-12.07,6.45c-2.89,2.1-5.55,4.5-7.75,7.24v0c-2.79,3.46-4.87,7.42-5.88,11.84
		c-0.2,1.13-0.28,2.27-0.28,3.41h1.95h12.91h3.26c1.78-4.59,4.55-9.52,5.42-10.77c3.51-5.67,7.43-11.57,13.57-14.64
		c2.18-1,3.61,2.24,1.4,3.22c-4.4,2.27-7.44,6.26-10.11,10.31c-2.47,3.76-4.8,7.69-6.51,11.87h27.82c-0.05-3.11-0.21-6.19-0.21-9.33
		c-0.01-3.82,0.19-7.63,0.44-11.44c-0.04-1.01,0.9-1.85,1.89-1.77c0.98,0.08,1.65,0.93,1.61,1.88c-0.34,5.4-0.59,10.79-0.36,16.2
		c0.05,1.53,0.09,3,0.11,4.45h23.08c-1.45-7.12-5.65-13.69-10.42-19.13c-1.49-1.72,1.11-4,2.64-2.3c4.25,4.8,7.8,10.39,10.09,16.39
		c0.63,1.65,1.04,3.34,1.3,5.04h17.85v-4.39C368.55,617.34,366.18,613.58,363.84,610.14z"/>
	<path class="st2" d="M300.82,613.83c2.67-4.06,5.71-8.04,10.11-10.31c2.21-0.98,0.78-4.22-1.4-3.22
		c-6.14,3.06-10.05,8.96-13.57,14.64c-0.87,1.25-3.63,6.18-5.42,10.77h3.76C296.02,621.52,298.35,617.59,300.82,613.83z"/>
	<path class="st2" d="M325.51,621.26c-0.24-5.41,0.01-10.81,0.36-16.2c0.04-0.95-0.63-1.8-1.61-1.88c-0.99-0.08-1.93,0.76-1.89,1.77
		c-0.25,3.81-0.46,7.62-0.44,11.44c0,3.14,0.16,6.21,0.21,9.33h3.49C325.6,624.26,325.56,622.79,325.51,621.26z"/>
	<path class="st2" d="M351.01,620.66c-2.28-6-5.84-11.59-10.09-16.39c-1.54-1.7-4.13,0.58-2.64,2.3
		c4.77,5.44,8.97,12.02,10.42,19.13h3.62C352.06,624,351.64,622.31,351.01,620.66z"/>
	<path class="st22" d="M333.01,582.99c-1.34-5.44-5.5-9.4-8.77-13.74c-1.48-1.45-3.39-3.29-5.63-2.94
		c-2.08,0.63-4.23,1.49-5.97,2.81c-0.59,0.53-0.83,1.32-0.58,2.08c0.14,0.43,0.43,0.7,0.77,0.96c0.66,0.58,1.24,1.36,1.7,2.12
		c6.63,12.23-0.35,16.47-1.52,19.32c-0.11,0.13-0.19,0.28-0.25,0.43c-0.03,0.09-0.06,0.17-0.08,0.26c-0.03,0.14-0.05,0.28-0.05,0.43
		c0,0.45,0.17,0.91,0.48,1.24c0.01,0.02,0.02,0.03,0.04,0.05c0.09,0.08,0.18,0.16,0.29,0.22c0.11,0.06,0.23,0.12,0.36,0.16
		c0.33,0.18,0.65,0.36,0.99,0.52c0.43,0.22,0.87,0.41,1.31,0.6c1.95,0.83,4,1.36,6.16,1.34c2.52,0.15,5.03-0.36,7.28-1.5
		c1.05-0.49,2.87-1.42,3.85-2.55l0,0c0.56-0.64,0.84-1.34,0.57-2.07C335.15,590.28,333.79,584.67,333.01,582.99z"/>
	<path class="st20" d="M267.24,603.18c-2.11,2.49-4.51,4.74-6.57,7.29c-1.03,0.87-1.24,2.6,0.12,3.27c0.76,0.37,1.72,0.12,2.21-0.58
		c2.3-2.99,5.19-5.46,7.46-8.45c0.27-0.48,0.33-0.93,0.26-1.31c-0.15-0.84-0.95-1.39-1.78-1.37
		C268.29,602.04,267.64,602.38,267.24,603.18z"/>
	<path class="st20" d="M249.62,613.11c2.21-1.93,4.31-3.98,6.41-6.03c2.39-2.29,4.66-4.7,6.74-7.27c0.61-0.74,0.56-1.83-0.18-2.47
		c-0.7-0.61-1.86-0.56-2.47,0.18c-3.32,4.12-7.19,7.75-11.04,11.37c-1.01,1.29-3.5,2.07-2.93,4.05
		C246.83,614.59,248.64,614.27,249.62,613.11z"/>
	<path class="st20" d="M253.33,592.31c-0.47,0.02-0.93,0.21-1.23,0.59c-1.1,1.39-2.34,2.65-3.57,3.91
		c-0.91,1.11-3.69,2.65-2.17,4.43c2.13,1.97,4.07-1.75,5.59-2.93c1.1-1.52,4.4-3.47,2.69-5.49c-0.03-0.03-0.05-0.07-0.08-0.1
		C254.23,592.43,253.78,592.29,253.33,592.31z"/>
	<path class="st20" d="M218.42,598.45c0.07,0.18,0.16,0.33,0.26,0.46c1.38,1.84,4.96-0.84,6.74-1.27c1.69-1.03,6.63-1.55,5.41-4.3
		c-0.56-1.11-1.88-1.12-2.83-0.55c-1.37,0.59-2.75,1.14-4.12,1.71c-1.46,0.61-2.92,1.18-4.4,1.72c-0.56,0.21-0.96,0.68-1.1,1.23
		C218.3,597.77,218.3,598.12,218.42,598.45z"/>
	<path class="st20" d="M217.33,591.34c0.08,0.2,0.18,0.35,0.29,0.49c1.08,1.42,3.25,0.02,4.65-0.44c1.46-0.66,4.26-1.29,3.28-3.46
		c-0.78-1.52-2.45-0.82-3.6-0.2c-1.13,0.69-3.31,0.88-4.25,1.87C217.31,590.03,217.13,590.57,217.33,591.34z"/>
	<path class="st17" d="M386.04,707.36c1.98-9.12,3.95-18.26,5.94-27.38c0.16-0.75,0.33-1.5,0.49-2.25
		c-0.02,0.11-0.05,0.22-0.07,0.33c1.99-9.12,4.08-18.22,6.27-27.29c0.05-0.22,0.11-0.44,0.16-0.66c1.54-8.15,3.16-16.28,4.82-24.41
		h-7.69h-11.58v13.99c2.19,0.02,4.37,0.03,6.56,0.05c0.95,0,1.69,0.96,1.63,1.86c-0.07,0.99-0.9,1.63-1.85,1.63
		c-0.01,0-0.01,0-0.02,0c-2.11-0.02-4.21-0.03-6.32-0.05v71.82C384.94,712.46,385.49,709.91,386.04,707.36z"/>
	<path class="st17" d="M370.16,643.08c-0.15,0-0.3,0-0.46,0c-7.75-0.05-15.5-0.11-23.25-0.17c-7.62-0.05-15.23-0.11-22.86-0.17
		c-7.87-0.05-15.74-0.11-23.61-0.17c-7.94-0.06-15.87-0.12-23.81-0.18c-7.75-0.05-15.5-0.11-23.25-0.17
		c-7.86-0.05-15.71-0.12-23.57-0.17c-3.07-0.02-6.14-0.05-9.22-0.07c-1.52-0.01-3.03-0.02-4.54-0.03c-1.48-0.01-2.96,0.01-4.45-0.03
		c-0.95-0.03-1.69-0.95-1.62-1.87c0.07-0.98,0.91-1.66,1.86-1.63c1.84,0.05,3.69,0.03,5.54,0.04c1.9,0.01,3.8,0.03,5.69,0.04
		c3.94,0.03,7.88,0.06,11.82,0.09c8.05,0.05,16.1,0.12,24.16,0.18c7.82,0.05,15.65,0.11,23.48,0.17c7.73,0.06,15.46,0.11,23.19,0.17
		c7.79,0.07,15.59,0.11,23.38,0.17c7.68,0.06,15.36,0.12,23.04,0.17c6.16,0.04,12.31,0.09,18.47,0.13V625.7h-17.85h-3.62h-23.08
		h-3.49h-27.82h-3.76h-3.26h-12.91h-1.95h-40.75h-33.2c0.24,1.74,0.56,3.47,0.89,5.19c0.37,1.99,0.77,3.97,1.2,5.95
		c0.91,4.22,1.9,8.42,2.93,12.61c0,0.02,0.01,0.03,0.01,0.05c1.04,4.03,2.11,8.04,3.21,12.05c-0.03-0.1-0.05-0.2-0.08-0.3
		c0.27,0.98,0.54,1.96,0.81,2.93c-0.03-0.1-0.05-0.2-0.08-0.3c1.69,5.82,3.34,11.66,5.04,17.48c1.4,4.8,2.82,9.59,4.24,14.39
		c0.58,1.97,1.16,3.95,1.75,5.92c1.18,3.97,2.33,7.95,3.48,11.92c1.47,5.12,2.93,10.25,4.35,15.39c0-0.01-0.01-0.02-0.01-0.03
		c2.08,7.49,4.15,14.97,6.2,22.46h137.76V643.08z"/>
	<path class="st23" d="M205.76,669.56c0.03,0.1,0.05,0.2,0.08,0.31"/>
	<path class="st18" d="M390.72,643.23c0.95,0,1.78-0.64,1.85-1.63c0.06-0.91-0.68-1.86-1.63-1.86c-2.18-0.02-4.37-0.03-6.56-0.05
		v3.49c2.11,0.02,4.21,0.03,6.32,0.05C390.71,643.23,390.72,643.23,390.72,643.23z"/>
	<path class="st18" d="M351.69,639.45c-7.68-0.05-15.36-0.11-23.04-0.17c-7.8-0.06-15.59-0.11-23.38-0.17
		c-7.73-0.06-15.46-0.11-23.19-0.17c-7.83-0.06-15.65-0.12-23.48-0.17c-8.05-0.06-16.11-0.12-24.16-0.18
		c-3.94-0.03-7.88-0.06-11.82-0.09c-1.89-0.01-3.79-0.03-5.69-0.04c-1.84-0.02-3.69,0.01-5.54-0.04c-0.95-0.03-1.8,0.65-1.86,1.63
		c-0.07,0.92,0.67,1.84,1.62,1.87c1.48,0.04,2.96,0.02,4.45,0.03c1.51,0.01,3.03,0.02,4.54,0.03c3.07,0.02,6.14,0.05,9.22,0.07
		c7.86,0.05,15.71,0.12,23.57,0.17c7.75,0.05,15.5,0.12,23.25,0.17c7.94,0.05,15.87,0.12,23.81,0.18
		c7.87,0.06,15.74,0.12,23.61,0.17c7.62,0.05,15.24,0.11,22.86,0.17c7.75,0.05,15.5,0.11,23.25,0.17c0.15,0,0.3,0,0.46,0v-3.49
		C364,639.54,357.85,639.49,351.69,639.45z"/>
	<path class="st24" d="M141.7,282.57c0.1-0.06,0.21-0.11,0.31-0.17c0.02,0.03,0.04,0.05,0.07,0.08c0.01,0,0.01,0,0.02,0.01
		c1.2,0.84,2.38,1.71,3.55,2.58c0.12-1.84,2.36-1.99,4.14-0.96c3.44,1.69,6.69,4.05,8.85,7.25c-0.02-0.34-0.07-0.67-0.11-1.01
		c-0.53-2.27-1.9-4.4-2.81-6.42c-1.15-2.22-2.29-4.44-3.41-6.68s-2.23-4.47-3.32-6.72c-0.17-0.35-0.35-0.7-0.53-1.04
		c-5.92,0.1-9.8,6.8-9.16,12.34c0,0.68,0.06,1.34,0.14,2C140.19,283.41,140.95,282.99,141.7,282.57
		C141.7,282.57,141.7,282.57,141.7,282.57z"/>
	<path class="st11" d="M233.51,277.04c-2.51-4.36-6.77-7.71-11.43-9.53c-5.42-2.14-11.25-0.34-15.81,2.89
		c-1.73,0.73-3.64,0.02-5.5-0.05c-0.33-0.01-0.65,0-0.98,0.04c-3.23,0.08-6.5,1.01-9.33,2.64c-2.55,1.47-4.75,3.52-6.24,6.08
		c-1.21,2.08-2,4.35-2.46,6.69c-0.07,0.58-0.13,1.16-0.18,1.75c-0.06,0.71-0.1,1.43-0.13,2.14c0.76-0.53,1.52-1.05,2.28-1.58
		c1.62-1.14,3.19-2.32,4.8-3.47c0.21-0.11,0.43-0.22,0.64-0.34c0.12-0.06,0.25-0.13,0.37-0.2c0.82-0.43,1.65-0.87,2.47-1.3
		c0.56-0.3,1.11-0.59,1.67-0.89c1.22,0.35,2.46,1.19,3.18,1.92c7.34,6.16,14.53,12.43,21.57,18.79c4.73-5.1,10.29-9.74,15.32-14.67
		c0.72-0.74,1.43-1.83,2.51-2.23C235.74,282.71,234.83,279.76,233.51,277.04z M212.91,281.85c-0.11,0.85-0.87,1.52-1.74,1.52
		c-3.75-0.62-0.59-5.32,1.5-6.17c1.93-1.07,7.85-1.06,6.92,2.3C218.14,282.37,214.8,277.78,212.91,281.85z M221.12,292.31
		c-0.9-0.52-1.35,0.74-1.9,1.22c-0.68,0.67-1.8,0.68-2.48,0c-1.23-1.24,0.03-2.67,0.98-3.61c1.23-1.27,3.18-1.59,4.77-0.84
		C224.57,289.99,223.23,293.17,221.12,292.31z"/>
	<path class="st5" d="M200.83,255.9c-1.6-1.18-3.7-0.67-5.53-0.46c-5.91,0.89-10.81,4.5-15.9,7.33c1.67-12.42,2.58-24.91,2-37.45
		c-0.2-4.02-0.23-8.2-1.7-11.99c-2.44-4.78-6.2-2.57-8.6,0.85c-3.29,4.69-4.85,10.3-6.38,15.75c-1.45,5.42-2.93,10.88-3.45,16.47
		c-0.53,5.84,0.47,11.63,0.9,17.44c-4.05-3.82-7.69-9.25-13.67-9.86c-2.04-0.24-4.49,0.64-5.04,2.8c-0.32,1.25,0.15,2.53,0.54,3.71
		c1.13,3.16,2.91,6.02,4.46,8.99c0.18,0.34,0.36,0.69,0.53,1.04c1.09,2.25,2.19,4.49,3.32,6.72s2.26,4.46,3.41,6.68
		c0.91,2.01,2.28,4.15,2.81,6.42c0,0,0,0,0,0c0.05,0.33,0.09,0.67,0.11,1.01c-2.16-3.2-5.41-5.56-8.85-7.25
		c-1.78-1.03-4.02-0.88-4.14,0.96c6.82,5.1,13.08,10.67,19.1,16.38c0.18-0.14,0.37-0.27,0.56-0.41c3.53-2.63,7.2-5.15,10.87-7.67
		c0.68-0.47,1.36-0.94,2.04-1.42c1.08-0.75,2.17-1.5,3.25-2.25c0.03-0.71,0.07-1.43,0.13-2.14c0.05-0.58,0.11-1.17,0.18-1.75
		c0.46-2.34,1.25-4.61,2.46-6.69c1.49-2.56,3.69-4.61,6.24-6.08c2.83-1.64,6.09-2.56,9.33-2.64c0.32-0.04,0.65-0.05,0.98-0.04
		C203.63,265.53,204.85,260.11,200.83,255.9z M186.22,274.93c-3.24,2.32-6.09,5.08-8.85,7.93c-0.34,0.35-0.68,0.7-1.02,1.06
		c-0.21,0.22-0.42,0.44-0.63,0.66c-1.33,0.96-2.48,3.65-4.38,2.83c0.06,1.1,0.14,2.21,0.24,3.31c0.01,0.06,0.01,0.12,0.01,0.17
		c0.24,2.27-3.12,2.76-3.47,0.47c0-0.05-0.01-0.11-0.01-0.16c-0.17-1.82-0.28-3.64-0.36-5.46c-2.35-2.29-4.66-4.63-6.95-6.98
		c-0.27-0.28-0.55-0.56-0.82-0.84c-0.44-0.45-0.87-0.9-1.31-1.34c-0.44-0.45-0.88-0.9-1.32-1.35c-0.05-0.05-0.11-0.1-0.17-0.15
		c-0.57-0.53-1.24-1.06-1.46-1.81c-0.19-0.65,0.02-1.22,0.4-1.62c0.71-0.73,2.04-0.88,2.73,0.16c2.96,2.93,5.84,5.95,8.78,8.91
		c-0.04-3.97,0.02-7.95,0.04-11.92c0.04-10.25,0.43-20.59,2.69-30.62c0.64-2.19,3.92-1.32,3.38,0.93
		c-2.86,12.93-2.54,26.25-2.61,39.41c-0.01,1.88,0.01,3.76,0.07,5.64c0.35-0.4,0.74-0.76,1.08-1.07c2.66-2.66,5.16-5.48,8.01-7.93
		c1.68-0.99,4.35-4.83,6.25-2.68C187.12,273.22,186.99,274.36,186.22,274.93z"/>
	<path class="st2" d="M211.17,283.37c0.87,0,1.63-0.67,1.74-1.52c1.89-4.07,5.23,0.53,6.68-2.35c0.93-3.35-4.99-3.37-6.92-2.3
		C210.59,278.05,207.42,282.75,211.17,283.37z"/>
	<path class="st22" d="M186.54,272.47c-1.89-2.15-4.56,1.69-6.25,2.68c-2.86,2.45-5.36,5.27-8.01,7.93
		c-0.34,0.31-0.74,0.68-1.08,1.07c-0.06-1.88-0.08-3.76-0.07-5.64c0.07-13.16-0.25-26.49,2.61-39.41c0.55-2.25-2.73-3.12-3.38-0.93
		c-2.26,10.04-2.65,20.37-2.69,30.62c-0.02,3.97-0.08,7.95-0.04,11.92c-2.94-2.96-5.82-5.97-8.78-8.91
		c-0.69-1.04-2.03-0.9-2.73-0.16c-0.38,0.4-0.59,0.96-0.4,1.62c0.23,0.75,0.9,1.28,1.46,1.81c0.05,0.05,0.11,0.1,0.17,0.15
		c0.44,0.45,0.88,0.9,1.32,1.35c0.44,0.45,0.87,0.9,1.31,1.34c0.27,0.28,0.55,0.56,0.82,0.84c2.29,2.35,4.6,4.69,6.95,6.98
		c0.08,1.82,0.19,3.64,0.36,5.46c0,0.05,0.01,0.11,0.01,0.16c0.35,2.28,3.71,1.8,3.47-0.47c-0.01-0.06-0.01-0.12-0.01-0.17
		c-0.1-1.1-0.18-2.21-0.24-3.31c1.9,0.82,3.05-1.87,4.38-2.83c0.21-0.22,0.42-0.44,0.63-0.66c0.34-0.35,0.68-0.71,1.02-1.06
		c2.76-2.85,5.62-5.6,8.85-7.93C186.99,274.36,187.12,273.22,186.54,272.47z"/>
	<path class="st2" d="M216.74,293.53c0.68,0.68,1.79,0.67,2.48,0c0.55-0.48,1-1.74,1.9-1.22c2.12,0.86,3.46-2.32,1.36-3.23
		c-1.59-0.75-3.54-0.43-4.77,0.84C216.76,290.86,215.51,292.29,216.74,293.53z"/>
	<path class="st15" d="M141.7,282.57C141.7,282.57,141.7,282.57,141.7,282.57c0.08-0.04,0.17-0.09,0.25-0.14
		c0.04,0.01,0.08,0.03,0.12,0.05c-0.02-0.03-0.04-0.05-0.07-0.08C141.91,282.46,141.81,282.51,141.7,282.57z"/>
	<path class="st15" d="M109.04,299c-0.04,0.02-0.09,0.04-0.13,0.05c0.08,0.07,0.16,0.14,0.24,0.2
		C109.11,299.17,109.07,299.09,109.04,299z"/>
	<path class="st15" d="M121.13,289.18c0.03-0.03,0.06-0.06,0.1-0.09c-0.05,0.05-0.1,0.09-0.16,0.14
		C121.09,289.21,121.11,289.2,121.13,289.18z"/>
	<path class="st15" d="M238.31,286.19c0-0.05,0-0.11,0-0.16c0-0.07,0-0.14,0-0.2c-0.13-0.06-0.26-0.11-0.41-0.15
		c-0.64-0.18-1.17-0.12-1.64,0.05c-1.08,0.4-1.79,1.48-2.51,2.23c-5.02,4.93-10.59,9.58-15.32,14.67
		c-7.04-6.36-14.23-12.62-21.57-18.79c-0.72-0.74-1.96-1.57-3.18-1.92c-0.56,0.3-1.11,0.59-1.67,0.89c-0.82,0.44-1.65,0.87-2.47,1.3
		c-0.12,0.06-0.25,0.13-0.37,0.2c-0.21,0.11-0.43,0.22-0.64,0.34c-1.61,1.15-3.18,2.33-4.8,3.47c-0.76,0.53-1.52,1.06-2.28,1.58
		c-1.08,0.75-2.16,1.5-3.25,2.25c-0.68,0.47-1.36,0.94-2.04,1.42c-3.67,2.52-7.33,5.04-10.87,7.67c-0.19,0.14-0.37,0.27-0.56,0.41
		c-6.01-5.7-12.28-11.28-19.1-16.38c-1.17-0.87-2.34-1.74-3.55-2.58c-0.01,0-0.01,0-0.02-0.01c-0.04-0.02-0.08-0.03-0.12-0.05
		c-0.08,0.05-0.17,0.09-0.25,0.14c-0.75,0.42-1.51,0.84-2.26,1.26c-0.23,0.13-0.46,0.26-0.69,0.39c0,0,0,0,0,0
		c-0.64,0.36-1.29,0.72-1.93,1.08c-0.19,0.13-0.37,0.24-0.56,0.35c-0.65,0.45-1.28,0.92-1.91,1.38c-1.18,0.85-2.35,1.71-3.51,2.58
		c-3.55,2.67-7,5.42-10.4,8.2c-3.04,2.42-6.21,4.75-9.42,7.03c-4.67-3.88-9.35-7.75-13.85-11.74c-1.19-1.06-2.38-2.13-3.54-3.21
		c-2.36-2.19-4.66-4.42-6.84-6.73c-1.07-1.05-2.35-2.7-4.39-2.23c-0.06-0.09-0.13-0.18-0.19-0.28h-1.55v28.91v21.99v141.74v6.32
		h157.79v-84.79v-63.27v-21.99v-20.62C238.37,288.03,238.33,287.11,238.31,286.19z M194.91,357.54c2.36-1.27,4.7-2.57,7.05-3.85
		c0.84-0.46,1.92-0.11,2.36,0.72c0.45,0.85,0.11,1.91-0.72,2.37c-2.35,1.29-4.69,2.59-7.05,3.85c-0.26,0.14-0.53,0.2-0.81,0.2
		c-0.63,0-1.25-0.34-1.56-0.93C193.74,359.06,194.07,357.99,194.91,357.54z M121.04,359.58c-0.32,0.55-0.91,0.86-1.52,0.86
		c-0.3,0-0.6-0.08-0.88-0.23c-2.31-1.34-4.61-2.7-6.91-4.05c-0.82-0.48-1.11-1.57-0.63-2.39c0.48-0.82,1.57-1.11,2.39-0.63
		c2.3,1.35,4.6,2.71,6.92,4.05C121.24,357.67,121.52,358.77,121.04,359.58z M116.4,386.42c-0.01,0-0.01,0-0.02,0
		c-0.09,0.01-0.19,0.01-0.29,0.02c-0.03,0-0.05,0-0.08,0c0,0-0.01,0-0.01,0c-0.15,0.01-0.3,0.02-0.45,0.03
		c-0.23,0.03-0.47,0.04-0.71,0.05c-0.08,0.01-0.16,0.01-0.24,0.01c-0.05,0.01-0.1,0.01-0.14,0.01c-0.05,0-0.11,0.01-0.16,0.01
		c-0.02,0-0.05,0-0.05,0c-0.03,0-0.07,0-0.1,0.01c0,0,0,0,0,0c0,0,0,0,0,0l-0.02,0c-0.04,0-0.07,0.01-0.11,0.01
		c-0.2,0.03-0.4,0.03-0.6,0.04c-0.2,0.04-0.4,0.05-0.6,0.04c-0.19,0.02-0.38,0.02-0.51,0.03c-0.16,0.01-0.31,0.02-0.42,0.03
		c-0.17,0.01-0.35,0.03-0.53,0.04c-0.04,0-0.08,0.01-0.12,0.01c-0.05,0-0.09,0.01-0.14,0.01c-0.03,0-0.06,0-0.09,0.01
		c-0.01,0-0.02,0-0.03,0c-0.04,0-0.09,0.01-0.13,0.01c-0.02,0-0.04,0-0.05,0c-0.1,0.02-0.2,0.03-0.3,0.03
		c-0.17,0.03-0.34,0.03-0.51,0.02c-0.02,0-0.03,0-0.04,0c0,0-0.01,0-0.01,0c0,0,0,0-0.01,0c0,0-0.01,0,0,0
		c-0.04,0-0.08,0.01-0.12,0.01c-0.35,0.02-0.69,0.05-1.04,0.07c-0.07,0-0.13,0.01-0.2,0.01c-0.4,0-0.78-0.1-1.11-0.36
		c-0.36-0.28-0.6-0.7-0.66-1.15c-0.06-0.46,0.06-0.94,0.35-1.3c0.33-0.42,0.78-0.62,1.15-0.67c0.06,0,0.12-0.01,0.17-0.01l0.01,0
		c0.23-0.02,0.46-0.03,0.69-0.05c0.15-0.01,0.31-0.03,0.46-0.03c0.03,0,0.07-0.01,0.1-0.01c0.13-0.02,0.25-0.03,0.38-0.03
		c0.11-0.01,0.21-0.01,0.32-0.01c0.05,0,0.09-0.01,0.14-0.01c0.16-0.03,0.33-0.04,0.5-0.03c0.11-0.01,0.22-0.02,0.33-0.02
		c0.19-0.01,0.37-0.02,0.51-0.03c0.23-0.02,0.45-0.03,0.59-0.04c0.03,0,0.07-0.01,0.1-0.01c0,0,0,0,0,0
		c0.05-0.01,0.09-0.01,0.14-0.01c0.15-0.03,0.31-0.04,0.46-0.03c0.12-0.02,0.24-0.03,0.36-0.03c0.11-0.01,0.21-0.01,0.32-0.01
		l0.02,0c0.05,0,0.11-0.01,0.12-0.01c0.05,0,0.09-0.01,0.09-0.01c0.02,0,0.03,0,0.05,0c0,0,0,0,0,0c0.08-0.01,0.16-0.02,0.23-0.02
		c0.31-0.02,0.61-0.04,0.92-0.06c0.03,0,0.06,0,0.08-0.01c0.09-0.01,0.19-0.01,0.28-0.02c0.02,0,0.04,0,0.05,0c0,0,0,0,0,0
		c0.07-0.01,0.15-0.02,0.22-0.02c0.04,0,0.08-0.01,0.11-0.01c0.03,0,0.06,0,0.09,0c0.05-0.01,0.09-0.01,0.14-0.01
		c0.01,0,0.02,0,0.03,0h0c0.04,0,0.09-0.01,0.08-0.01c0.05,0,0.09-0.01,0.14-0.01c0.17-0.01,0.34-0.02,0.5-0.02l0.18-0.02
		c0.19-0.02,0.39-0.04,0.59-0.04c0.14-0.01,0.29-0.02,0.43-0.03c0.86-0.05,1.62,0.7,1.73,1.51c0.12,0.89-0.54,1.91-1.5,1.97
		c-0.1,0.01-0.2,0.01-0.3,0.02h0c-0.03,0-0.05,0-0.08,0.01c-0.03,0-0.06,0.01-0.1,0.01c-0.02,0-0.03,0-0.03,0
		c-0.03,0-0.06,0-0.08,0.01c-0.09,0.01-0.17,0.01-0.25,0.02c-0.01,0-0.01,0-0.02,0c-0.03,0-0.07,0-0.13,0.01
		c-0.04,0-0.09,0.01-0.13,0.01c-0.05,0.01-0.11,0.01-0.16,0.01c-0.03,0-0.07,0-0.1,0c-0.05,0.01-0.09,0.01-0.14,0.02
		C116.82,386.4,116.61,386.42,116.4,386.42z M128.64,407.04c-2.89,2.1-5.8,4.18-8.69,6.3c-0.32,0.24-0.7,0.35-1.08,0.35
		c-0.52,0-1.03-0.22-1.37-0.67c-0.57-0.74-0.45-1.89,0.31-2.45c2.89-2.11,5.8-4.2,8.69-6.3c0.77-0.56,1.86-0.46,2.45,0.32
		C129.53,405.33,129.41,406.48,128.64,407.04z M175.47,400.71c-2.94,4.18-6.04,8.29-10.1,11.46c-2.75,1.85-5.06,5.65-8.73,5.2
		c-0.87-0.24-1.68-1.1-1.89-2.01c-0.16-0.04-0.33-0.1-0.5-0.2c-2.81-2.45-4.75-5.84-7.13-8.72c-3.38-4.49-6.69-9.04-9.34-14.02
		c-6.74-10.62-15.86-32.42,3.35-35.07c6.16-0.57,11.29,4,14.88,8.5c1.08,1.28,2.07,2.64,2.97,4.05c2.24-3.04,4.9-5.77,7.99-7.97
		c4.42-2.86,10.46-5.67,15.55-3.25C195.46,368.82,183.42,390.75,175.47,400.71z M197.95,406.44c-0.35,0.45-0.85,0.67-1.37,0.67
		c-0.38,0-0.76-0.12-1.08-0.35c-2.16-1.55-4.33-3.09-6.49-4.66c-0.77-0.56-0.89-1.72-0.32-2.45c0.6-0.77,1.68-0.88,2.46-0.32
		c2.16,1.56,4.32,3.11,6.48,4.66C198.41,404.54,198.52,405.7,197.95,406.44z M207.74,381.26c-0.22,0.02-0.43,0.03-0.59,0.04
		c-0.07,0-0.13,0.01-0.2,0.01c-0.01,0-0.03,0-0.03,0c-0.03,0-0.06,0-0.09,0.01c-1.14,0.08-2.29,0.15-3.42,0.23
		c-0.05,0-0.11,0.01-0.11,0.01l-0.08,0.01c-1.75,0.12-3.49,0.24-5.24,0.35c0,0,0,0,0,0c0,0,0,0-0.01,0c-0.04,0-0.07,0-0.08,0.01
		c-0.09,0.01-0.18,0.01-0.27,0.02c0,0,0,0,0,0c-0.07,0-0.13,0.01-0.2,0.01c-0.4,0-0.78-0.1-1.11-0.36c-0.36-0.28-0.6-0.7-0.66-1.15
		c-0.12-0.9,0.54-1.9,1.5-1.97c0.02,0,0.03,0,0.05,0c0.15-0.01,0.3-0.02,0.45-0.03c0.04,0,0.09-0.01,0.11-0.01
		c0.05,0,0.11-0.01,0.16-0.01l0.04,0c1.68-0.12,3.36-0.23,5.03-0.34c0.04,0,0.09-0.01,0.11-0.01c0.04,0,0.08-0.01,0.1-0.01
		c1.09-0.07,2.18-0.15,3.24-0.22c0.01,0,0.02,0,0.03,0c0.07,0,0.14-0.01,0.22-0.01c0.09-0.01,0.18-0.01,0.21-0.02
		c0.05,0,0.1-0.01,0.14-0.01c0.03,0,0.06,0,0.06,0c0.13-0.01,0.25-0.02,0.38-0.03c0.86-0.05,1.62,0.7,1.73,1.52
		C209.36,380.19,208.7,381.2,207.74,381.26z"/>
	<path class="st14" d="M154.26,415.17c0.17,0.09,0.34,0.16,0.5,0.2c0.21,0.91,1.02,1.77,1.89,2.01c3.67,0.45,5.98-3.35,8.73-5.2
		c4.06-3.17,7.16-7.28,10.1-11.46c7.94-9.96,19.99-31.89,7.05-42.02c-5.09-2.43-11.13,0.38-15.55,3.25
		c-3.09,2.21-5.75,4.93-7.99,7.97c-0.9-1.41-1.89-2.77-2.97-4.05c-3.59-4.5-8.72-9.07-14.88-8.5c-19.21,2.65-10.09,24.46-3.35,35.07
		c2.64,4.98,5.96,9.53,9.34,14.02C149.51,409.33,151.45,412.72,154.26,415.17z"/>
	<line class="st25" x1="116.35" y1="382.92" x2="116.35" y2="382.92"/>
	<path class="st8" d="M109.96,386.86c0.01,0,0.03,0,0.04,0c0.17,0.01,0.34,0.01,0.51-0.02c0.1,0,0.2-0.02,0.3-0.03
		c0.02,0,0.04,0,0.05,0c0.04,0,0.09-0.01,0.13-0.01c0.01,0,0.02,0,0.03,0c0.03,0,0.06,0,0.09-0.01c0.05,0,0.09,0,0.14-0.01
		c0.04,0,0.08-0.01,0.12-0.01c0.18,0,0.35-0.03,0.53-0.04c0.1-0.01,0.26-0.02,0.42-0.03c0.13-0.01,0.32-0.02,0.51-0.03
		c0.2,0.01,0.4,0,0.6-0.04c0.2-0.01,0.4-0.01,0.6-0.04c0.04,0,0.07-0.01,0.11-0.01l0.02,0c0,0,0,0,0,0c0,0,0,0,0,0
		c0.03,0,0.07,0,0.1-0.01c0,0,0.03,0,0.05,0c0.05,0,0.11-0.01,0.16-0.01c0.03,0,0.09-0.01,0.14-0.01c0.08,0,0.16-0.01,0.24-0.01
		c0.24-0.02,0.48-0.02,0.71-0.05c0.15,0,0.3-0.02,0.45-0.03c0,0,0.01,0,0.01,0c0.03,0,0.05,0,0.08,0c0.1-0.01,0.19-0.01,0.29-0.02
		c0.01,0,0.01,0,0.02,0c0.2,0,0.41-0.03,0.62-0.04c0.05,0,0.09-0.01,0.14-0.02c0.03,0,0.07,0,0.1,0c0.05,0,0.11,0,0.16-0.01
		c0.04,0,0.09-0.01,0.13-0.01c0.06,0,0.1,0,0.13-0.01c0.01,0,0.01,0,0.02,0c0.07-0.01,0.16-0.01,0.25-0.02c0.02,0,0.05,0,0.08-0.01
		c0,0,0.01,0,0.03,0c0.03,0,0.06,0,0.1-0.01c0.03,0,0.05,0,0.08-0.01h0c0.1-0.01,0.2-0.01,0.3-0.02c0.95-0.07,1.62-1.08,1.5-1.97
		c-0.11-0.81-0.88-1.57-1.73-1.51c-0.14,0.01-0.29,0.01-0.43,0.03c-0.2,0-0.4,0.03-0.59,0.04l-0.18,0.02c-0.16,0-0.33,0.01-0.5,0.02
		c-0.05,0-0.09,0.01-0.14,0.01c0,0-0.04,0-0.08,0.01h0c-0.01,0-0.02,0-0.03,0c-0.05,0-0.09,0-0.14,0.01c-0.03,0-0.06,0-0.09,0
		c-0.04,0-0.08,0.01-0.11,0.01c-0.08,0-0.15,0.01-0.22,0.02c0,0,0,0,0,0c-0.02,0-0.04,0-0.05,0c-0.09,0.01-0.19,0.01-0.28,0.02
		c-0.03,0-0.06,0-0.08,0.01c-0.31,0.02-0.61,0.04-0.92,0.06c-0.08,0-0.15,0-0.23,0.02c0,0,0,0,0,0c-0.02,0-0.03,0-0.05,0
		c0,0-0.04,0-0.09,0.01c-0.01,0-0.07,0.01-0.12,0.01l-0.02,0c-0.11,0-0.21,0-0.32,0.01c-0.12,0-0.24,0.01-0.36,0.03
		c-0.15,0-0.31,0.01-0.46,0.03c-0.05,0-0.09,0.01-0.14,0.01c0,0,0,0,0,0c-0.03,0-0.07,0-0.1,0.01c-0.14,0.01-0.36,0.02-0.59,0.04
		c-0.14,0.01-0.32,0.02-0.51,0.03c-0.11,0.01-0.22,0.01-0.33,0.02c-0.17-0.01-0.33,0-0.5,0.03c-0.05,0-0.09,0.01-0.14,0.01
		c-0.11,0-0.21,0-0.32,0.01c-0.13,0-0.26,0.01-0.38,0.03c-0.03,0-0.07,0.01-0.1,0.01c-0.16,0.01-0.31,0.03-0.46,0.03
		c-0.23,0.02-0.46,0.03-0.69,0.05l-0.01,0c-0.06,0-0.12,0.01-0.17,0.01c-0.37,0.05-0.82,0.24-1.15,0.67
		c-0.29,0.37-0.41,0.84-0.35,1.3c0.06,0.45,0.3,0.87,0.66,1.15c0.33,0.26,0.71,0.36,1.11,0.36c0.07,0,0.13,0,0.2-0.01
		c0.35-0.02,0.69-0.05,1.04-0.07c0.04,0,0.08,0,0.12-0.01c-0.01,0-0.01,0,0,0C109.95,386.86,109.95,386.86,109.96,386.86
		C109.96,386.86,109.96,386.86,109.96,386.86z"/>
	<path class="st8" d="M118.87,413.7c0.38,0,0.76-0.12,1.08-0.35c2.89-2.11,5.79-4.2,8.69-6.3c0.77-0.56,0.89-1.72,0.32-2.45
		c-0.59-0.77-1.68-0.88-2.45-0.32c-2.89,2.1-5.8,4.18-8.69,6.3c-0.77,0.56-0.89,1.71-0.31,2.45
		C117.84,413.47,118.36,413.7,118.87,413.7z"/>
	<path class="st8" d="M111.73,356.16c2.3,1.35,4.6,2.71,6.91,4.05c0.27,0.16,0.58,0.23,0.88,0.23c0.61,0,1.2-0.31,1.52-0.86
		c0.48-0.82,0.2-1.92-0.62-2.39c-2.32-1.34-4.61-2.7-6.92-4.05c-0.82-0.48-1.91-0.2-2.39,0.63
		C110.63,354.59,110.91,355.68,111.73,356.16z"/>
	<path class="st8" d="M203.32,381.56c0,0,0.05,0,0.11-0.01c1.12-0.08,2.27-0.15,3.42-0.23c0.03,0,0.06,0,0.09-0.01
		c0,0,0.02,0,0.03,0c0.07,0,0.13-0.01,0.2-0.01c0.16-0.01,0.38-0.03,0.59-0.04c0.95-0.07,1.62-1.07,1.5-1.97
		c-0.11-0.82-0.88-1.57-1.73-1.52c-0.12,0.01-0.25,0.02-0.38,0.03c0,0-0.03,0-0.06,0c-0.05,0-0.1,0.01-0.14,0.01
		c-0.04,0-0.13,0.01-0.21,0.02c-0.09,0-0.15,0.01-0.22,0.01c-0.01,0-0.02,0-0.03,0c-1.06,0.07-2.15,0.15-3.24,0.22
		c-0.02,0-0.06,0-0.1,0.01c-0.02,0-0.07,0-0.11,0.01c-1.67,0.11-3.35,0.23-5.03,0.34l-0.04,0c-0.05,0-0.11,0.01-0.16,0.01
		c-0.02,0-0.06,0-0.11,0.01c-0.15,0.01-0.3,0.02-0.45,0.03c-0.02,0-0.03,0-0.05,0c-0.95,0.07-1.62,1.07-1.5,1.97
		c0.06,0.45,0.3,0.87,0.66,1.15c0.33,0.26,0.71,0.36,1.11,0.36c0.06,0,0.13,0,0.2-0.01c0,0,0,0,0,0c0.09-0.01,0.18-0.01,0.27-0.02
		c0,0,0.04,0,0.08-0.01c0,0,0,0,0.01,0c0,0,0,0,0,0c1.75-0.12,3.49-0.24,5.24-0.35L203.32,381.56z"/>
	<path class="st8" d="M194.18,359.9c0.31,0.58,0.93,0.93,1.56,0.93c0.28,0,0.55-0.06,0.81-0.2c2.36-1.27,4.7-2.57,7.05-3.85
		c0.84-0.46,1.17-1.52,0.72-2.37c-0.44-0.83-1.53-1.18-2.36-0.72c-2.35,1.28-4.69,2.58-7.05,3.85
		C194.07,357.99,193.74,359.06,194.18,359.9z"/>
	<path class="st8" d="M196.58,407.11c0.52,0,1.02-0.22,1.37-0.67c0.57-0.73,0.46-1.9-0.32-2.45c-2.16-1.55-4.33-3.1-6.48-4.66
		c-0.77-0.56-1.86-0.46-2.46,0.32c-0.57,0.73-0.46,1.89,0.32,2.45c2.16,1.56,4.32,3.11,6.49,4.66
		C195.82,406.99,196.2,407.11,196.58,407.11z"/>
	<path class="st26" d="M387.62,745.12c-0.01,0-0.02-0.01-0.03-0.01c0,0.09,0.01,0.18,0.02,0.27
		C387.61,745.3,387.62,745.21,387.62,745.12z"/>
	<path class="st26" d="M24.63,500.5h261.71h33.4h50.42v94v26.81v4.39v13.89v3.49v108.34v2.33h14.23v-32.53v-6.21v-71.82v-3.49V625.7
		v-31.15v-5v-5.97v-0.67v-81.88c1-0.02,2.01-0.03,3.01-0.04c1.05-0.01,2.09,0,3.14,0.01v-0.49h12.96v-20.88h-23.36H238.43H80.64h-56
		H-0.25v20.88H24.63z M372.93,503.8c0,0-0.05-0.01-0.05-0.01c0,0,0.01,0,0.01,0c-2.24-0.29-1.97-3.62,0.31-3.48
		c2.31,0.07,4.65-0.21,6.96-0.39c0.95-0.08,1.79,0.73,1.84,1.66c0.05,0.98-0.71,1.75-1.66,1.84c-2.48,0.17-4.97,0.49-7.45,0.38
		C372.9,503.8,372.91,503.8,372.93,503.8z"/>
	<path class="st7" d="M372.93,503.8c-0.01,0-0.02-0.01-0.04-0.01c0,0-0.01,0-0.01,0C372.88,503.8,372.93,503.8,372.93,503.8z"/>
	<path class="st7" d="M380.34,503.42c0.95-0.09,1.71-0.86,1.66-1.84c-0.05-0.93-0.88-1.74-1.84-1.66c-2.31,0.19-4.65,0.47-6.96,0.39
		c-2.28-0.14-2.55,3.19-0.31,3.48C375.37,503.91,377.87,503.59,380.34,503.42z"/>
	<polygon class="st6" points="43.63,714 24.74,714 24.74,723.89 24.74,735.42 25.08,735.42 43.42,735.42 43.71,735.42 43.71,721.39 
		43.71,714 	"/>
</g>
<path class="st2" d="M503,339.24c-1.67-14.4-3.31-29.06-8.54-42.7c-4.19-9.76-9.56-19.37-17.82-26.22
	c-0.37-0.31-0.73-0.61-1.11-0.91c-4.34-3.56-8.93-6.91-14.18-8.99c-1.03-0.44-2.07-0.87-3.11-1.29c-0.23-0.01-0.45-0.02-0.68-0.03
	c-0.33,0-0.65,0.01-0.98,0.02c0,0-0.01-0.01-0.01-0.01c-0.19,0.01-0.38,0.01-0.57,0.02c-0.01,0-0.01,0-0.02,0
	c-0.02,0-0.05,0-0.07,0.01c-0.55,0.04-1.11,0.08-1.66,0.14c-0.14,0.02-0.29,0.03-0.43,0.05c-0.03,0-0.07,0.01-0.1,0.01
	c-0.36,0.04-0.72,0.08-1.08,0.13c-0.05,0.01-0.09,0.01-0.14,0.02c-10.75,3.56-13.99,15.32-14.82,25.88
	c-0.62,9.92-0.21,19.89,0.46,29.8c2.11,21.87,3.73,43.78,6.05,65.63c-0.03,0.02-0.05,0.03-0.08,0.04
	c-9.39,6.42-18.63,13.08-28.05,19.46c-7.96,4.9-15.66,10.19-23.51,15.24c-3.02,2-6,4.06-9.03,6.05c-0.53,0.24-1.04,0.61-1.44,1.04
	c0.12,0.06,0.23,0.13,0.35,0.19c0.98,0.55,1.08,1.57,0.68,2.33c0.25,0.24,0.49,0.5,0.74,0.76c0.37-0.2,0.68-0.51,0.82-0.89
	c11.48-7.66,22.99-15.26,34.63-22.67c8.97-6.17,17.82-12.48,26.79-18.62c0.38-0.27,0.59-0.59,0.69-0.93c0.61-0.32,1-0.99,0.96-1.71
	c-0.16-2.47-0.55-4.92-0.77-7.38c-1.18-13.72-2.79-27.41-3.7-41.15c-0.98-11.94-2.44-23.85-2.38-35.84
	c0.08-12.1-0.25-30.78,14.35-34.34c0.38-0.03,0.69-0.15,0.96-0.29c1.25,0.5,2.51,1.01,3.77,1.56c6.14,2.51,11.38,6.7,16.33,11.03
	c13.55,13.26,19.07,32.37,21.42,50.72c2.45,15.84,3.08,32.03,1.58,48.07c-1.98,14.11-4.02,28.27-7.16,42.18
	c-1.17,4.66-2.05,9.38-3.35,14c-0.14,1.07-0.85,2.72-0.92,4.07c-11.83,3.81-24.18,5.61-36.51,7c-10.88,1.32-21.73,2.82-32.64,3.9
	c-9.6,0.91-19.6,1.3-29.23,1.16c-0.88,0.33-1.17,1.37-0.89,2.2c0.14,0.4,0.39,0.75,0.8,0.94c2.11,0.58,4.41,0.24,6.59,0.4
	c15.65-0.05,31.21-2.04,46.71-3.98c9-1.33,18.11-1.96,27.06-3.67c3.14-0.51,6.26-1.16,9.35-1.9c2.2-0.53,4.39-1.09,6.57-1.72
	c0.05-0.02,0.11-0.04,0.16-0.06c1.12-0.46,3.15-0.66,4.41-1.37c0.8-0.44,1.29-1.09,1.05-2.12c0,0,0,0,0,0
	c0.27-0.89,0.31-2.04,0.61-2.96c2.04-8.07,4.09-16.35,5.64-24.56c1.82-11.04,3.87-22.07,5.23-33.18
	C504,362.28,503.64,350.81,503,339.24z"/>
<path class="st2" d="M373.75,284.27c-7.82-3.45-12.11,10.36-3.81,12.19C379.11,298.54,381.54,283.62,373.75,284.27z M371.7,293.13
	c-0.92,0.08-1.93-0.25-2.45-1.04c-0.91-1.56,0-4.03,1.58-4.81c0.85-0.21,1.72,0.44,2.55,0.09c0.34,0.26,0.81,0.26,1.2,0.41
	C375.51,289.94,374.28,293.03,371.7,293.13z"/>
<path class="st2" d="M378.65,302.06c-0.33-1.5-2.01-1.39-3.23-1.38c-4.02-0.1-6.35,4.31-5.85,7.9c0.43,2.64,2.9,4.21,5.44,4.32
	c3.13,0.49,5.88-2.04,6.07-5.12C381.5,305.69,381.13,302.58,378.65,302.06z M376.03,309.44c-1.16,0-2.77-0.13-3.03-1.52
	c0.04-1.26,0.32-2.79,1.46-3.53c0.74-0.32,1.57-0.17,2.35-0.18c0.06,0.59,0.71,0.86,0.88,1.37
	C377.75,306.95,377.76,309.19,376.03,309.44z"/>
<path class="st2" d="M383.96,325.04c-0.01-1.55-0.59-3.96-2.4-4.15c-0.12-1.27-1.3-1.59-2.42-1.69c-7.66-0.79-10.19,11.33-1.81,12.5
	C381.03,332.16,383.9,328.52,383.96,325.04z M377.93,328.25c-3.15-0.22-2.82-3.87-0.71-5.33c0.76-0.54,1.69-0.14,2.53-0.1
	c0.04,0.64,0.58,1.12,0.7,1.75C380.53,326.13,379.66,328.07,377.93,328.25z"/>
<path class="st2" d="M368.66,333.78c-0.79-7.46-1.63-14.91-3.15-22.27c-1.91-8.61-3.52-17.35-4.2-26.16
	c0.1-1.53-1.93-2.41-2.98-1.29c-0.66,0.68-0.53,1.56-0.44,2.41c0.75,9.77,2.85,19.33,4.8,28.91c1.33,7.07,1.92,14.24,2.78,21.37
	c0.13,0.95,1.04,1.63,1.97,1.5C369.68,337.86,368.75,335.34,368.66,333.78z"/>
<path class="st2" d="M311.3,312.4c-0.27-2.3-3.64-1.95-3.48,0.32c1.81,16.07,2.08,32.25,3.74,48.32c0.28,2.3,3.65,1.94,3.48-0.32
	c-0.47-4.43-0.84-8.88-1.14-13.32C313.26,335.72,312.5,324.04,311.3,312.4z"/>
</svg>
